<svg width="98" height="99" viewBox="0 0 98 99" fill="none" xmlns="http://www.w3.org/2000/svg">
<path d="M32.4209 79.3817L29.0649 59.6004C32.3043 62.6401 36.4696 65.2453 41.2967 67.0339C43.7104 67.9324 46.1349 68.5595 48.5087 68.9466L49.7313 76.1674C50.3775 79.9912 48.068 83.6995 44.3442 84.7923L42.1298 85.4456C37.734 86.7426 33.189 83.9055 32.4209 79.3817Z" fill="white"/>
<path d="M48.444 83.2686C50.1998 81.3776 51.0686 78.7274 50.6099 76.0264L49.281 68.1842L48.6602 68.0822C46.278 67.6953 43.9118 67.066 41.6165 66.2132C37.0682 64.5227 32.9399 62.0162 29.6833 58.9604L27.7657 57.1639L31.5594 79.5303C31.9654 81.9331 33.3865 84.0565 35.4521 85.3472C37.5176 86.638 40.0485 86.986 42.3865 86.2948L44.6009 85.6415C46.1144 85.1977 47.4298 84.361 48.444 83.2686ZM47.7454 69.7169L48.8658 76.3203C49.4414 79.7007 47.3912 82.9825 44.0963 83.951L41.8819 84.6043C40.0262 85.1484 38.0233 84.8725 36.3845 83.8494C34.7457 82.8263 33.6161 81.1424 33.2952 79.2366L30.3505 61.8871C33.4229 64.3619 37.0591 66.4115 40.99 67.8664C43.1965 68.685 45.4621 69.3014 47.7454 69.7169Z" fill="black"/>
<path d="M55.6104 16.9571L40.1562 29.749C44.5973 29.5634 49.4524 30.3088 54.2755 32.1017C56.6892 33.0002 58.9354 34.1049 60.9871 35.3586L66.6251 30.6889C69.614 28.2144 70.2793 23.8959 68.1741 20.6389L66.9223 18.6969C64.4366 14.8454 59.1455 14.0329 55.6104 16.9571Z" fill="white"/>
<path d="M68.0092 30.6001C70.6308 27.7765 71.0632 23.475 68.9183 20.157L67.6625 18.2193C66.34 16.1715 64.1958 14.7836 61.7893 14.4143C59.3784 14.041 56.9191 14.7242 55.0425 16.2779L37.566 30.7457L40.1881 30.6317C44.6499 30.4412 49.4152 31.2399 53.9635 32.9304C56.2588 33.7833 58.4662 34.852 60.5182 36.114L61.0557 36.4442L67.1831 31.3687C67.4828 31.1324 67.7566 30.8722 68.0092 30.6001ZM42.6195 28.8615L56.1727 17.6408C57.6612 16.41 59.6128 15.8666 61.5248 16.1625C63.4367 16.4584 65.1325 17.5586 66.1808 19.183L67.4366 21.1208C69.2984 23.999 68.7066 27.8229 66.0698 30.0134L60.9131 34.2859C58.9142 33.1053 56.7925 32.1001 54.5901 31.2772C50.6548 29.8182 46.5639 28.9945 42.6195 28.8615Z" fill="black"/>
<path d="M22.8395 50.8059L19.5323 51.6664C17.889 52.0943 16.2141 51.11 15.7823 49.471C15.3545 47.8277 16.3387 46.1529 17.9777 45.7211L21.6152 44.7732C21.6151 43.1975 21.8827 41.6451 22.4402 40.1528C22.9933 38.6566 23.8064 37.3133 24.8375 36.1161L22.7052 33.0269C21.7406 31.6328 22.0948 29.7187 23.4889 28.7541C24.883 27.7894 26.7971 28.1436 27.7617 29.5377L29.7003 32.3506C36.015 29.0648 45.199 28.7324 54.2786 32.1058C68.2785 37.306 76.7206 49.3407 73.1431 58.9865C69.5573 68.6326 55.3088 72.2377 41.309 67.0375C32.221 63.6645 25.4817 57.4154 22.8395 50.8059ZM25.0256 35.9048C25.1496 35.7627 25.2819 35.6202 25.4144 35.486C25.2778 35.6245 25.1539 35.7667 25.0256 35.9048ZM22.5943 50.1521C22.5712 50.0905 22.5524 50.0328 22.5292 49.9711C22.5524 50.0328 22.5755 50.0945 22.5943 50.1521ZM21.647 45.6308C21.6359 45.4436 21.6328 45.2478 21.6257 45.0563C21.6288 45.2521 21.6359 45.4436 21.647 45.6308Z" fill="url(#paint0_linear_7538_14125)"/>
<path d="M44.0235 79.9768L37.2921 65.2856C38.5666 65.9304 39.9099 66.5184 41.3007 67.0379C46.1787 68.8496 51.0794 69.5891 55.5573 69.3813L57.4713 73.5541C58.841 76.5381 57.7591 80.0758 54.9545 81.789L53.2872 82.8055C49.9773 84.8293 45.6427 83.506 44.0235 79.9768Z" fill="white"/>
<path d="M56.9825 81.2676C58.9628 79.1348 59.5451 75.9532 58.2794 73.1863L56.1159 68.4683L55.5207 68.4945C51.0178 68.7033 46.2069 67.9104 41.6123 66.2091C40.2894 65.7204 38.9713 65.1398 37.6928 64.4994L35.4413 63.3656L43.2247 80.3439C44.1003 82.2582 45.7548 83.7059 47.7661 84.3192C49.7773 84.9324 51.96 84.6597 53.7534 83.5593L55.4207 82.5428C56.0078 82.1875 56.5296 81.7555 56.9825 81.2676ZM54.9993 70.2856L56.6685 73.9255C57.8522 76.5038 56.9149 79.5567 54.4977 81.0346L52.8303 82.0511C51.4646 82.8813 49.8049 83.093 48.2785 82.6243C46.752 82.1557 45.4898 81.0561 44.8273 79.6049L39.0942 67.1029C39.7254 67.3755 40.3561 67.6314 40.9901 67.8663C45.6059 69.5794 50.4351 70.4132 54.9993 70.2856Z" fill="black"/>
<path d="M64.7867 24.0788L50.0956 30.8102C51.4842 31.1589 52.8839 31.5822 54.2747 32.1018C59.1527 33.9135 63.3486 36.5551 66.6061 39.6358L70.7789 37.7218C73.7629 36.3522 75.255 32.9701 74.2467 29.8393L73.6483 27.9814C72.4609 24.2902 68.3119 22.464 64.7867 24.0788Z" fill="white"/>
<path d="M73.4769 36.8423C75.2447 34.9383 75.9301 32.174 75.0915 29.5704L74.4931 27.7125C73.8479 25.7146 72.3741 24.0809 70.4541 23.2308C68.5301 22.3851 66.3295 22.4 64.4152 23.2756L47.4369 31.059L49.8858 31.6685C51.2744 32.0172 52.6491 32.4415 53.9721 32.9302C58.567 34.6398 62.7298 37.1784 66.0046 40.2752L66.4367 40.6844L71.1547 38.5209C72.0567 38.1122 72.8356 37.533 73.4769 36.8423ZM65.1502 24.8825C66.6053 24.2157 68.2724 24.2039 69.7387 24.8498C71.2051 25.4958 72.3224 26.7342 72.8082 28.2544L73.4065 30.1123C74.2779 32.8105 72.9856 35.7349 70.4114 36.9143L66.7715 38.5834C63.3974 35.507 59.1935 32.9866 54.5776 31.2735C53.9436 31.0386 53.2976 30.8166 52.6438 30.6116L65.1502 24.8825Z" fill="black"/>
<path d="M73.5888 55.8303C78.6241 58.5116 81.4409 61.1752 81.1489 61.9572C80.865 62.7306 76.9866 62.9162 71.4206 61.6636C72.0056 60.7998 72.4924 59.8771 72.864 58.8795C73.2355 57.8819 73.4689 56.8686 73.5888 55.8303Z" fill="black"/>
<path d="M81.745 62.6401C81.8492 62.5279 81.9282 62.4082 81.9772 62.2688C82.8676 59.8638 74.9117 55.5399 74.0056 55.0524L72.8615 54.4404L72.7133 55.7257C72.5959 56.718 72.373 57.6768 72.0393 58.5729C71.7057 59.4691 71.2543 60.3363 70.6931 61.1658L69.9701 62.239L71.2313 62.5257C71.6057 62.616 80.0293 64.488 81.745 62.6401ZM74.2608 57.2107C77.5528 59.0854 79.4784 60.7607 80.0918 61.5634C79.0991 61.7753 76.5483 61.7865 72.832 61.0615C73.1721 60.4527 73.4573 59.8252 73.6923 59.1911C73.9272 58.5571 74.1193 57.8913 74.2608 57.2107Z" fill="black"/>
<path d="M54.279 32.1056C55.2766 32.4771 56.2378 32.8792 57.1753 33.3155L44.2926 68.0064C43.2984 67.7265 42.3026 67.4049 41.305 67.0334C40.0496 66.5672 38.8463 66.0449 37.6871 65.4751L50.5164 30.9195C51.7709 31.2482 53.0236 31.6394 54.279 32.1056Z" fill="black"/>
<path d="M61.5025 35.677C63.6926 37.0673 65.6435 38.6374 67.3196 40.3303L56.5517 69.3233C54.1825 69.5112 51.6782 69.429 49.1088 69.0533L61.5025 35.677Z" fill="black"/>
<path d="M70.8856 44.7505C73.8506 49.3845 74.8223 54.4511 73.1398 58.9907C71.4529 63.5264 67.4113 66.7278 62.1379 68.3033L70.8856 44.7505Z" fill="black"/>
<path d="M36.7434 40.706C35.9685 41.5406 34.6638 41.589 33.8292 40.8142C32.9947 40.0393 32.9463 38.7346 33.7211 37.9C34.496 37.0655 35.8007 37.0171 36.6353 37.7919C37.4698 38.5668 37.5182 39.8715 36.7434 40.706Z" fill="black"/>
<path d="M33.0901 50.5544C32.3152 51.389 31.0105 51.4374 30.176 50.6625C29.3414 49.8877 29.293 48.583 30.0678 47.7484C30.8427 46.9139 32.1474 46.8655 32.982 47.6403C33.8165 48.4152 33.8649 49.7199 33.0901 50.5544Z" fill="black"/>
<path d="M71.0221 64.0505C72.3169 62.656 73.3082 61.0601 73.968 59.293C75.8022 54.3475 74.7587 48.6917 71.0261 43.3691C67.3599 38.1483 61.5227 33.8542 54.586 31.2726C45.8573 28.0321 36.7316 28.0247 29.9883 31.218L28.4818 29.0394C27.8825 28.1695 26.9771 27.5861 25.9404 27.3953C24.9036 27.2045 23.849 27.4312 22.9791 28.0304C22.1092 28.6296 21.5258 29.5351 21.335 30.5718C21.1442 31.6086 21.3709 32.6632 21.9701 33.5331L23.7237 36.0777C22.8202 37.2326 22.1086 38.5013 21.6085 39.8538C21.1084 41.2064 20.8192 42.6262 20.7487 44.0962L17.7593 44.8741C16.7396 45.1412 15.8799 45.7901 15.3467 46.702C14.8136 47.6138 14.6657 48.6824 14.9328 49.7021C15.4821 51.812 17.647 53.0824 19.7568 52.533L22.3249 51.8625C25.3502 58.6829 32.2658 64.6295 40.9988 67.874C47.9395 70.4512 55.1638 71.0087 61.3506 69.4451C65.3976 68.4112 68.6971 66.5546 71.0221 64.0505ZM23.62 29.7992C23.7282 29.6826 23.8494 29.5781 23.9836 29.4856C24.4631 29.151 25.0462 29.0251 25.6213 29.133C26.1964 29.2409 26.696 29.56 27.0266 30.0439L29.4099 33.4947L30.101 33.1314C36.469 29.8228 45.3915 29.7461 53.9638 32.9299C60.5705 35.382 66.1116 39.4494 69.5713 44.3819C72.9606 49.217 73.9326 54.2918 72.3068 58.6752C70.681 63.0585 66.6273 66.2729 60.903 67.7192C55.0632 69.1948 48.2065 68.6571 41.5997 66.205C33.023 63.0172 26.3143 57.1422 23.6533 50.475L23.4053 49.8589L23.4177 49.8543L23.3572 49.6856L22.5092 49.9755L19.3013 50.8157C18.1328 51.1217 16.9354 50.4199 16.6294 49.2515C16.4792 48.686 16.5615 48.0951 16.8597 47.5921C17.1535 47.0852 17.6281 46.7299 18.1936 46.5797L21.8725 45.622L22.5173 45.5855C22.5065 45.4067 22.504 45.2275 22.4972 45.0443L22.4889 45.0446L22.4873 44.7779C22.49 43.277 22.7489 41.8292 23.2527 40.464C23.7565 39.0988 24.5141 37.8326 25.4891 36.6959L25.6776 36.4929L25.6819 36.497C25.7978 36.3634 25.9221 36.2296 26.0467 36.1041L25.5575 35.6178L23.4253 32.5286C23.0907 32.0491 22.9648 31.466 23.0727 30.8909C23.1532 30.4752 23.3434 30.0971 23.62 29.7992Z" fill="black"/>
<defs>
<linearGradient id="paint0_linear_7538_14125" x1="34.696" y1="26.8459" x2="62.7669" y2="80.5209" gradientUnits="userSpaceOnUse">
<stop stop-color="#FFE174"/>
<stop offset="0.125" stop-color="#FFE174"/>
<stop offset="0.390625" stop-color="white"/>
<stop offset="0.635417" stop-color="#FFE174"/>
<stop offset="1" stop-color="#FFE174"/>
</linearGradient>
</defs>
</svg>
