<svg width="60" height="60" viewBox="0 0 60 60" fill="none" xmlns="http://www.w3.org/2000/svg">
<circle opacity="0.1" cx="30" cy="30" r="30" fill="#ED1C24"/>
<path d="M44.0625 27.5567H15.9375C15.42 27.5567 15 27.1367 15 26.6192V22.2449C15 21.2099 15.84 20.3699 16.875 20.3699H43.125C44.16 20.3699 45 21.2099 45 22.2449V26.6192C45 27.1367 44.58 27.5567 44.0625 27.5567Z" stroke="#ED1C24" stroke-width="1.5" stroke-miterlimit="10"/>
<path d="M41.2498 41.9323H18.7498C17.7148 41.9323 16.8748 41.0923 16.8748 40.0573V27.5566H43.1248V40.0573C43.1248 41.0923 42.2867 41.9323 41.2498 41.9323Z" stroke="#ED1C24" stroke-width="1.5" stroke-miterlimit="10"/>
<path d="M30.0003 20.2881C28.6935 17.2806 25.4778 14.4006 23.6816 15.1093C22.2753 15.6662 20.5878 17.7043 22.6128 18.9399C25.7647 20.8674 30.0003 20.2881 30.0003 20.2881Z" stroke="#ED1C24" stroke-width="1.5" stroke-miterlimit="10"/>
<path d="M30.0006 20.2873C31.3074 17.2798 34.5231 14.3998 36.3193 15.1086C37.7256 15.6655 39.4131 17.7036 37.3881 18.9392C34.2381 20.8667 30.0006 20.2873 30.0006 20.2873Z" stroke="#ED1C24" stroke-width="1.5" stroke-miterlimit="10"/>
<path d="M30 20.3699V41.9324" stroke="#ED1C24" stroke-width="1.5" stroke-miterlimit="10"/>
</svg>
