<svg width="60" height="60" viewBox="0 0 60 60" fill="none" xmlns="http://www.w3.org/2000/svg">
<circle opacity="0.1" cx="30" cy="30" r="30" fill="#ED1C24"/>
<path d="M33.6591 15H18V45H41.249V22.5899" stroke="#ED1C24" stroke-width="1.5" stroke-miterlimit="10" stroke-linecap="round" stroke-linejoin="round"/>
<path d="M41.2491 22.5899H33.6592V15L41.2491 22.5899Z" stroke="#ED1C24" stroke-width="1.5" stroke-miterlimit="10" stroke-linecap="round" stroke-linejoin="round"/>
<path d="M21.8347 33.7351H36.2955" stroke="#ED1C24" stroke-width="1.5" stroke-miterlimit="10" stroke-linecap="round" stroke-linejoin="round"/>
<path d="M25.1811 29.1023V28.0657C24.6628 27.9793 24.2308 27.8929 23.9717 27.7202C23.6262 27.5474 23.367 27.2882 23.1942 26.9427C22.9351 26.5972 22.8487 26.1653 22.7623 25.647L23.7989 25.4742C23.8853 25.9925 23.9717 26.4244 24.2308 26.6836C24.49 27.0291 24.8355 27.2019 25.2674 27.2882V24.092C24.8355 24.0057 24.4036 23.8329 23.9717 23.5737C23.6262 23.401 23.367 23.1418 23.1942 22.7963C23.0215 22.4508 22.9351 22.1052 22.9351 21.7597C22.9351 21.0686 23.1942 20.4639 23.7125 20.032C24.0581 19.7729 24.5764 19.5137 25.1811 19.5137V19.0818H25.7857V19.6001C26.3904 19.6865 26.8223 19.8592 27.1679 20.1184C27.5998 20.4639 27.859 20.9822 27.9453 21.5869L26.9087 21.7597C26.8224 21.3278 26.736 21.0686 26.5632 20.8958C26.3904 20.7231 26.1313 20.5503 25.7857 20.4639V23.3146C26.304 23.401 26.6496 23.5737 26.8224 23.5737C27.1679 23.7465 27.427 23.9193 27.5998 24.092C27.7726 24.2648 27.9453 24.524 28.0317 24.7831C28.1181 25.0423 28.2045 25.3878 28.2045 25.647C28.2045 26.338 27.9453 26.9427 27.5134 27.3746C27.0815 27.8065 26.4768 28.0657 25.7857 28.1521V29.1887H25.1811V29.1023ZM25.1811 20.3775C24.7491 20.4639 24.49 20.5503 24.2308 20.8095C23.9717 21.0686 23.8853 21.3278 23.8853 21.6733C23.8853 22.0188 23.9717 22.278 24.1445 22.5371C24.3172 22.7963 24.6628 22.9691 25.0947 23.0554V20.3775H25.1811ZM25.7857 27.2882C26.2177 27.2019 26.4768 27.0291 26.736 26.7699C26.9951 26.5108 27.0815 26.0789 27.0815 25.7333C27.0815 25.3878 26.9951 25.0423 26.8224 24.8695C26.6496 24.6103 26.304 24.4376 25.7857 24.2648V27.2882Z" fill="#ED1C24"/>
<path d="M21.8347 39.3674H36.2955" stroke="#ED1C24" stroke-width="1.5" stroke-miterlimit="10" stroke-linecap="round" stroke-linejoin="round"/>
</svg>
