<svg width="60" height="60" viewBox="0 0 60 60" fill="none" xmlns="http://www.w3.org/2000/svg">
<circle opacity="0.1" cx="30" cy="30" r="30" fill="#ED1C24"/>
<path d="M41 20.4286V17.8571C41 17.384 40.616 17 40.1429 17H18.7143C17.768 17 17 17.768 17 18.7143C17 19.6606 17.768 20.4286 18.7143 20.4286H42.7143C43.6606 20.4286 44.4286 21.1966 44.4286 22.1429V39.2857C44.4286 40.232 43.6606 41 42.7143 41H18.7143C17.768 41 17 40.232 17 39.2857V18.7143" stroke="#ED1C24" stroke-width="1.5" stroke-miterlimit="10"/>
<path d="M44.4286 34.1425H34.3143C33.8412 34.1425 33.4572 33.7585 33.4572 33.2854V28.1425C33.4572 27.6694 33.8412 27.2854 34.3143 27.2854H44.4286V34.1425Z" stroke="#ED1C24" stroke-width="1.5" stroke-miterlimit="10"/>
<path d="M37.5931 30.7144C37.5931 31.0103 37.3532 31.2501 37.0574 31.2501C36.7615 31.2501 36.5216 31.0103 36.5216 30.7144C36.5216 30.4186 36.7615 30.1787 37.0574 30.1787C37.3532 30.1787 37.5931 30.4186 37.5931 30.7144Z" fill="#ED1C24" stroke="#ED1C24" stroke-width="1.5"/>
</svg>
