<svg width="60" height="60" viewBox="0 0 60 60" fill="none" xmlns="http://www.w3.org/2000/svg">
<circle opacity="0.1" cx="30" cy="30" r="30" fill="#ED1C24"/>
<path d="M23.1061 46.9402C21.7191 47.3118 20.4132 46.7533 20.0265 45.6181C20.0058 45.541 19.9852 45.464 19.9645 45.3869C19.7525 44.2875 19.6493 43.9023 19.5254 43.44C19.3603 42.8235 19.2157 42.2841 18.9322 41.5343C18.5042 40.245 18.0197 39.0534 17.4376 37.8055L17.2986 37.5949L16.3256 36.1213L18.3345 35.9134C19.3775 35.7991 20.3641 35.7825 21.3507 35.7659L22.3373 35.7493L22.585 36.6739C22.8741 37.7527 23.1631 38.8315 23.5293 39.8896C23.8128 40.6394 23.9573 41.1788 24.2766 41.754C24.4775 42.1956 24.6578 42.5603 25.178 43.5771C25.3996 44.0958 25.4671 44.6558 25.2827 45.2007C25.042 45.8433 24.4724 46.4915 23.7225 46.775C23.6454 46.7956 23.4913 46.8369 23.4143 46.8576C23.2602 46.8989 23.1831 46.9195 23.1061 46.9402Z" stroke="#ED1C24" stroke-width="1.5" stroke-miterlimit="10"/>
<path d="M16.3259 36.1209L14.954 36.2407C14.317 36.3288 13.6799 36.4169 13.0428 36.505L12.6575 36.6083C12.2723 36.7115 11.8608 36.4088 11.7576 36.0236L10.2917 30.5528C10.1885 30.1675 10.3934 29.6996 10.7787 29.5964L11.164 29.4932C11.7598 29.2509 12.3762 29.0858 12.9513 28.7665L14.2199 28.2614L15.1033 27.8595C17.214 26.7985 19.304 25.6603 21.4091 24.2704C24.6439 22.1649 27.642 19.7924 30.4804 17.1324C31.1477 16.5406 32.2169 16.8323 32.444 17.6798L37.3785 36.0957C37.6056 36.9433 36.8462 37.8074 35.9517 37.5516C31.8911 36.575 28.1085 36.0194 24.5061 35.8285C22.1628 35.7131 19.7067 35.7931 17.2712 35.9502L16.3259 36.1209Z" stroke="#ED1C24" stroke-width="1.5" stroke-miterlimit="10"/>
<path d="M14.2197 28.2617L16.3256 36.1212" stroke="#ED1C24" stroke-width="1.5" stroke-miterlimit="10"/>
<path d="M42.3488 24.4412L48.8983 22.6862" stroke="#ED1C24" stroke-width="1.5" stroke-miterlimit="10" stroke-linecap="round" stroke-linejoin="round"/>
<path d="M38.3082 18.9166L41.749 12.9569" stroke="#ED1C24" stroke-width="1.5" stroke-miterlimit="10" stroke-linecap="round" stroke-linejoin="round"/>
<path d="M41.7975 31.939L47.7572 35.3798" stroke="#ED1C24" stroke-width="1.5" stroke-miterlimit="10" stroke-linecap="round" stroke-linejoin="round"/>
</svg>
