<svg width="40" height="47" viewBox="0 0 40 47" fill="none" xmlns="http://www.w3.org/2000/svg">
<path fill-rule="evenodd" clip-rule="evenodd" d="M20.3397 0.243103C20.4207 0.324138 27.6328 7.2931 38.8966 10.9397C39.2207 11.0207 39.4638 11.3448 39.5448 11.75C39.5448 12.9655 39.3017 41.5707 20.0155 47H19.7724H19.5293C0.243104 41.5707 0 12.9655 0 11.75C0 11.3448 0.243103 11.1017 0.567241 10.9397C11.9121 7.2931 19.1241 0.324138 19.2052 0.243103C19.5293 -0.0810345 20.0155 -0.0810345 20.3397 0.243103ZM16.774 31.3612C17.0981 31.7664 17.5843 31.9285 18.0705 31.9285C18.6377 31.9285 19.0429 31.6854 19.4481 31.3612L30.7929 19.9354C31.5222 19.2061 31.5222 18.0716 30.7929 17.3423C30.4688 16.9371 29.9826 16.775 29.4964 16.775C29.0102 16.775 28.524 17.0181 28.1998 17.3423L18.0705 27.4716L12.8033 22.2043C12.4791 21.7992 11.9929 21.6371 11.5067 21.6371C11.0205 21.6371 10.5343 21.8802 10.2102 22.2043C9.80499 22.5285 9.64292 23.0147 9.64292 23.5009C9.64292 23.9871 9.88603 24.4733 10.2102 24.7974L16.774 31.3612Z" fill="#282828"/>
</svg>
