<svg width="51" height="64" viewBox="0 0 51 64" fill="none" xmlns="http://www.w3.org/2000/svg">
<path d="M27.7438 37.835C27.0573 37.0799 26.3021 36.0501 25.6156 34.8144C27.1259 29.6657 27.3319 26.0959 26.0962 24.311C25.4783 23.3499 24.4486 22.8693 23.2815 22.8693C21.9085 22.8693 20.8101 23.4872 20.3296 24.7229C19.2998 27.1256 20.8788 31.5192 22.7323 35.089C22.2518 36.7366 21.5653 38.5901 20.7415 40.581C20.3296 41.6794 19.7804 42.7778 19.2312 43.8075C15.1122 45.3865 10.5813 47.7892 10.0321 50.6725C9.82614 51.7709 10.1694 52.8007 11.1305 53.5558C11.6797 54.0364 12.2975 54.2423 12.984 54.2423C13.2586 54.2423 13.5332 54.1737 13.8078 54.105C16.3479 53.4872 19.0252 49.7114 21.0847 46.0043C22.2518 45.5924 23.6248 45.1119 25.0664 44.7C26.7827 44.2194 28.3616 43.8075 29.7346 43.5329C32.2747 45.5924 34.5401 46.6908 36.4623 46.6908C37.8353 46.7595 39.071 46.2103 40.0321 45.1805C41.5424 43.6702 40.9245 42.2972 40.7186 41.8853C39.6202 40.0318 35.9131 39.6199 30.4898 40.6496C29.666 39.8258 28.7049 38.8647 27.7438 37.835ZM13.19 51.4963C12.984 51.565 12.9154 51.4963 12.7094 51.1531C12.8467 50.4666 14.1511 49.1622 16.9657 47.7892C15.5241 49.8487 14.1511 51.2904 13.19 51.4963ZM22.7323 25.8213C22.801 25.684 22.801 25.6153 23.2129 25.6153C23.6248 25.6153 23.7621 25.7526 23.8307 25.8899C24.3113 26.5764 24.3113 28.3613 23.7621 31.176C22.8696 28.8419 22.3204 26.7137 22.7323 25.8213ZM24.3799 42.0913C23.8994 42.2286 23.3502 42.3659 22.801 42.5718C22.9383 42.2286 23.0756 41.8853 23.2129 41.6107C23.6934 40.375 24.174 39.208 24.5172 38.1096C24.9291 38.7274 25.4097 39.2766 25.7529 39.6885C26.3021 40.2377 26.8513 40.7869 27.3319 41.3361C26.4394 41.5421 25.4097 41.8167 24.3799 42.0913ZM38.2472 43.2583C37.9039 43.8762 37.3547 43.9448 36.5996 43.9448C35.7758 43.9448 34.6774 43.5329 33.5103 42.8464C36.8742 42.5032 38.5904 42.6405 38.2472 43.2583Z" fill="#ED1C24"/>
<path d="M49.3687 20.4668H32.9614C31.7943 20.4668 30.9019 19.5744 30.9019 18.4073V2L49.3687 20.4668Z" stroke="#ED1C24" stroke-width="3" stroke-miterlimit="10" stroke-linecap="round" stroke-linejoin="round"/>
<path d="M30.3524 2H4.0595C2.89245 2 2 2.89245 2 4.0595V59.9405C2 61.1075 2.89245 62 4.0595 62H47.3089C48.476 62 49.3684 61.1075 49.3684 59.9405V21.016C49.3684 20.6728 49.2311 20.3295 48.9565 20.0549L31.3135 2.4119C31.1076 2.1373 30.6957 2 30.3524 2Z" stroke="#ED1C24" stroke-width="3" stroke-miterlimit="10" stroke-linecap="round" stroke-linejoin="round"/>
</svg>
