<svg width="292" height="76" viewBox="0 0 292 76" fill="none" xmlns="http://www.w3.org/2000/svg">
<path d="M37.4302 74.8558C58.1011 74.8558 74.8581 58.0987 74.8581 37.4279C74.8581 16.757 58.1011 0 37.4302 0C16.7594 0 0.00231934 16.757 0.00231934 37.4279C0.00231934 58.0987 16.7594 74.8558 37.4302 74.8558Z" fill="#ED1C24"/>
<path d="M61.4532 39.3844L53.0097 28.3789C53.026 31.45 52.3865 34.7859 51.0221 38.0728C50.3419 39.7184 49.5191 41.2417 48.5986 42.6266L51.6819 46.6426C53.3152 48.7688 56.2804 49.3431 58.5858 47.9704L59.9584 47.1558C62.6833 45.5388 63.3839 41.9015 61.4532 39.3844Z" fill="white"/>
<path d="M55.8854 49.331C54.1014 49.331 52.3499 48.5246 51.1973 47.0216L47.8492 42.6593L48.0895 42.2968C49.0141 40.9079 49.8083 39.4131 50.456 37.849C51.739 34.7494 52.411 31.4787 52.3947 28.3913L52.3866 26.5747L61.9339 39.018C62.9603 40.3539 63.3676 42.0728 63.0499 43.7265C62.7322 45.3801 61.718 46.8261 60.268 47.6855L58.8954 48.5001C57.9586 49.0581 56.9159 49.331 55.8854 49.331ZM49.3481 42.6023L52.1667 46.2762C53.6085 48.158 56.2357 48.663 58.2763 47.4493L59.6489 46.6346C60.7975 45.9504 61.5999 44.8058 61.8524 43.4943C62.105 42.1828 61.7832 40.8183 60.9686 39.7593L53.5637 30.1061C53.3723 32.8269 52.7002 35.6332 51.5883 38.3093C50.9651 39.8122 50.2116 41.25 49.3481 42.6023Z" fill="black"/>
<path d="M18.9178 21.7681L32.6686 19.9556C30.4854 22.1184 28.5792 24.9288 27.2188 28.2158C26.5386 29.8613 26.0417 31.5191 25.7118 33.1483L20.6937 33.8081C18.034 34.1584 15.5331 32.464 14.8733 29.8654L14.4782 28.3176C13.6962 25.2465 15.7734 22.1835 18.9178 21.7681Z" fill="white"/>
<path d="M19.9975 34.4678C17.3337 34.4678 14.9509 32.6635 14.2789 30.0159L13.8879 28.4682C13.4724 26.8349 13.7779 25.0957 14.7228 23.7027C15.6678 22.3056 17.1708 21.381 18.8407 21.1611L34.3918 19.1123L33.1006 20.3872C30.9052 22.5581 29.0682 25.3482 27.7852 28.4478C27.1376 30.0119 26.6407 31.633 26.3148 33.2663L26.2293 33.6939L20.7754 34.4108C20.5148 34.4515 20.2541 34.4678 19.9975 34.4678ZM31.06 20.7863L18.9996 22.3748C17.6758 22.55 16.4824 23.2831 15.733 24.391C14.9835 25.4989 14.7432 26.8756 15.0731 28.1708L15.4641 29.7186C16.0466 32.0158 18.2623 33.5147 20.6125 33.2092L25.2029 32.6064C25.545 31.0383 26.0338 29.4905 26.6529 27.9876C27.7649 25.3075 29.2719 22.8473 31.06 20.7863Z" fill="black"/>
<path d="M51.4825 21.0878L53.4742 19.817C54.464 19.1857 54.7532 17.8741 54.1259 16.8844C53.4946 15.8946 52.1831 15.6054 51.1933 16.2327L49.002 17.6297C48.2037 16.8884 47.2913 16.2938 46.273 15.8742C45.2548 15.4506 44.1917 15.2307 43.1001 15.19L42.538 12.6565C42.2855 11.512 41.1491 10.791 40.0046 11.0436C38.86 11.2961 38.1391 12.4325 38.3916 13.577L38.9048 15.8824C34.2696 17.5361 29.7811 22.0327 27.2191 28.2198C23.2682 37.7589 25.3944 47.6973 31.9643 50.4221C38.5382 53.143 47.0673 47.6199 51.0182 38.0807C53.5842 31.8896 53.5883 25.5356 51.4825 21.0878ZM42.9046 15.1859C42.7742 15.1818 42.6398 15.1818 42.5095 15.1859C42.6439 15.1818 42.7742 15.1859 42.9046 15.1859ZM51.2666 20.656C51.2463 20.6153 51.2259 20.5787 51.2055 20.5379C51.2259 20.5787 51.2463 20.6194 51.2666 20.656ZM49.4215 18.0493C49.3319 17.9556 49.2342 17.8619 49.1405 17.7682C49.2382 17.8619 49.3319 17.9556 49.4215 18.0493Z" fill="url(#paint0_linear_7624_61)"/>
<path d="M56.2972 45.5424L52.0205 35.2212C51.7476 36.1702 51.4136 37.1274 51.0226 38.0764C49.6459 41.4001 47.7152 44.2309 45.5035 46.4018L46.7173 49.3344C47.5849 51.4321 49.8862 52.5481 52.0734 51.9331L53.3727 51.5665C55.9551 50.8415 57.3236 48.0229 56.2972 45.5424Z" fill="white"/>
<path d="M50.8552 52.7153C48.8431 52.7153 46.9572 51.5137 46.1508 49.5709L44.7781 46.2554L45.0714 45.9662C47.2953 43.783 49.1567 40.9726 50.456 37.8445C50.8307 36.9443 51.1566 36.0034 51.4336 35.0544L51.9183 33.3804L56.8589 45.3104C57.4169 46.6546 57.3721 48.1738 56.7367 49.4813C56.1013 50.7887 54.9364 51.7663 53.5353 52.1573L52.236 52.5239C51.7798 52.6542 51.3154 52.7153 50.8552 52.7153ZM46.2241 46.5446L47.2831 49.1025C48.0325 50.915 50.0202 51.8762 51.906 51.3467L53.2053 50.9802C54.2684 50.6788 55.1564 49.9375 55.637 48.9436C56.1176 47.9498 56.1543 46.793 55.7307 45.7748L52.0934 36.9891C51.9345 37.4372 51.7676 37.8771 51.5883 38.3088C50.2849 41.4532 48.4358 44.2922 46.2241 46.5446Z" fill="black"/>
<path d="M18.2093 29.7675L28.5305 25.4907C28.0539 26.3583 27.61 27.2666 27.219 28.2156C25.8423 31.5393 25.2069 34.9077 25.2354 38.0073L22.3027 39.2211C20.2051 40.0887 17.7898 39.2537 16.6778 37.2701L16.018 36.093C14.7064 33.755 15.7329 30.7939 18.2093 29.7675Z" fill="white"/>
<path d="M20.5879 40.1743C18.7916 40.1743 17.0687 39.2212 16.1441 37.5716L15.4843 36.3945C14.7756 35.1277 14.6412 33.6125 15.1136 32.2399C15.5902 30.8673 16.6329 29.7594 17.977 29.2014L29.9071 24.2607L29.064 25.7881C28.5874 26.6557 28.1557 27.5518 27.7809 28.4519C26.4857 31.5841 25.8136 34.8874 25.8421 38.0033L25.8462 38.4147L22.5307 39.7873C21.8994 40.0521 21.2396 40.1743 20.5879 40.1743ZM18.4454 30.3296C17.4231 30.7532 16.6329 31.5923 16.2704 32.6391C15.9079 33.6859 16.0097 34.8345 16.5514 35.7957L17.2113 36.9728C18.1685 38.6835 20.2579 39.4045 22.0664 38.655L24.6243 37.596C24.6528 34.4394 25.3534 31.1239 26.6568 27.9795C26.836 27.5477 27.0274 27.116 27.2311 26.6883L18.4454 30.3296Z" fill="black"/>
<g style="mix-blend-mode:multiply" opacity="0.7">
<path d="M22.8176 72.4845C27.1587 74.2739 31.6483 75.1765 36.0818 75.2804L43.78 48.2121L43.7519 48.2001C39.9329 51.3355 35.4874 52.5417 31.7005 50.98C27.9458 49.4343 25.6648 45.5041 25.1669 40.6592L10.3807 64.0768C13.7982 67.5957 17.9786 70.4914 22.8176 72.4845Z" fill="url(#paint1_radial_7624_61)"/>
</g>
<path d="M30.1558 49.1631C29.1456 52.9755 29.1701 55.6556 29.7037 55.8755C30.2291 56.0955 32.1475 54.2178 34.1311 50.8086C33.4183 50.6986 32.7218 50.5113 32.0416 50.2302C31.3614 49.9492 30.7382 49.5908 30.1558 49.1631Z" fill="black"/>
<path d="M29.7688 56.4991C29.6629 56.4991 29.5652 56.4828 29.4715 56.4421C27.8341 55.7619 29.386 49.697 29.5652 49.0087L29.7933 48.1411L30.5142 48.6706C31.0722 49.0779 31.6628 49.416 32.2738 49.6685C32.8847 49.9211 33.5364 50.1003 34.2207 50.2062L35.1046 50.3447L34.6565 51.1185C34.5262 51.3507 31.5121 56.4991 29.7688 56.4991ZM30.5386 50.1532C29.9399 52.703 29.8829 54.4666 30.001 55.155C30.5753 54.7517 31.7809 53.4646 33.1617 51.2407C32.6933 51.1267 32.2412 50.976 31.8094 50.7968C31.3777 50.6176 30.95 50.4017 30.5386 50.1532Z" fill="black"/>
<path d="M17.1585 47.6484L19.4109 50.4548L22.9993 50.19L21.0279 53.2L22.3883 56.5278L18.9181 55.5828L16.1687 57.9085L15.9977 54.312L12.9388 52.418L16.3032 51.1431L17.1585 47.6484Z" fill="white"/>
<path d="M38.5014 58.7231L39.597 60.6375L41.7965 60.8208L40.3139 62.4541L40.819 64.6006L38.8069 63.6964L36.921 64.8409L37.1573 62.6455L35.4873 61.2037L37.646 60.7556L38.5014 58.7231Z" fill="white"/>
<path d="M23.0115 63.8022L24.7099 65.1912L26.8117 64.5761L26.0174 66.6208L27.2516 68.4293L25.0643 68.3071L23.7243 70.0381L23.1622 67.9201L21.1012 67.1788L22.9463 65.9936L23.0115 63.8022Z" fill="white"/>
<path d="M27.2184 28.2196C26.9374 28.8998 26.6889 29.5759 26.469 30.2561L50.1051 40.0478C50.431 39.4124 50.7364 38.7567 51.0175 38.0765C51.3718 37.2211 51.6732 36.3658 51.9298 35.5104L28.3874 25.7554C27.9638 26.5455 27.5728 27.3642 27.2184 28.2196Z" fill="black"/>
<path d="M25.63 33.5596C25.3041 35.3232 25.182 37.0502 25.2512 38.6957L45.0057 46.8786C46.2154 45.7666 47.3517 44.4591 48.37 42.9806L25.63 33.5596Z" fill="black"/>
<path d="M25.813 42.5815C26.7661 46.2636 28.8759 49.1392 31.9674 50.4222C35.0589 51.7012 38.5821 51.1595 41.8609 49.2288L25.813 42.5815Z" fill="black"/>
<path d="M39.8251 23.3809C40.6124 23.3809 41.2507 22.7427 41.2507 21.9554C41.2507 21.168 40.6124 20.5298 39.8251 20.5298C39.0378 20.5298 38.3995 21.168 38.3995 21.9554C38.3995 22.7427 39.0378 23.3809 39.8251 23.3809Z" fill="black"/>
<path d="M46.5337 26.1627C47.321 26.1627 47.9593 25.5244 47.9593 24.7371C47.9593 23.9498 47.321 23.3115 46.5337 23.3115C45.7463 23.3115 45.1081 23.9498 45.1081 24.7371C45.1081 25.5244 45.7463 26.1627 46.5337 26.1627Z" fill="black"/>
<path d="M35.5277 51.7297C34.2121 51.7297 32.9373 51.4813 31.7316 50.9844C28.3632 49.5873 25.9886 46.3981 25.0477 42.0032C24.1272 37.6898 24.6974 32.7125 26.6525 27.9837C29.1167 22.0369 33.4057 17.4099 38.1956 15.4956L37.8005 13.7075C37.6417 12.9947 37.772 12.2615 38.163 11.6465C38.554 11.0315 39.165 10.6038 39.8778 10.445C40.5906 10.2861 41.3237 10.4164 41.9388 10.8075C42.5538 11.1985 42.9815 11.8094 43.1403 12.5222L43.6047 14.6076C44.6148 14.6932 45.5923 14.9294 46.5129 15.3123C47.4334 15.6952 48.2887 16.2165 49.0667 16.8723L50.867 15.7237C51.482 15.3327 52.2152 15.2023 52.928 15.3612C53.6408 15.52 54.2517 15.9477 54.6427 16.5627C55.4533 17.8335 55.0785 19.5279 53.8077 20.3385L52.26 21.3242C54.2924 26.0652 54.0521 32.3663 51.5879 38.3171C49.6288 43.0459 46.5129 46.9683 42.8104 49.3673C40.3829 50.9314 37.8901 51.7297 35.5277 51.7297ZM40.4725 11.6017C40.3625 11.6017 40.2525 11.6139 40.1426 11.6384C39.7475 11.7239 39.4094 11.9601 39.1935 12.3023C38.9776 12.6444 38.9043 13.0477 38.9939 13.4427L39.6212 16.2735L39.1121 16.4527C34.4402 18.1227 30.2042 22.6072 27.7848 28.448C25.9193 32.9487 25.3735 37.6694 26.2452 41.7425C27.1005 45.7341 29.2145 48.6138 32.2 49.852C35.1856 51.0903 38.721 50.5485 42.1465 48.3287C45.6412 46.0641 48.5942 42.3372 50.4597 37.8364C52.8791 31.9916 53.0583 25.829 50.9321 21.3445L50.7366 20.9291L50.7285 20.9331L50.6715 20.8232L51.2173 20.5299L53.152 19.2998C53.8566 18.8518 54.0644 17.915 53.6163 17.2103C53.4004 16.8682 53.0624 16.632 52.6673 16.5464C52.2722 16.4568 51.869 16.5301 51.5268 16.746L49.3111 18.1594L48.9893 18.4689C48.9038 18.3793 48.8141 18.2938 48.7245 18.2042L48.7286 18.2001L48.5942 18.0738C47.8325 17.3692 46.9772 16.8193 46.0485 16.4324C45.1199 16.0454 44.122 15.8336 43.0874 15.7929H42.896V15.797C42.7738 15.7929 42.6475 15.7929 42.5253 15.797L42.509 15.3204L41.9469 12.787C41.8614 12.3919 41.6252 12.0538 41.283 11.8379C41.0346 11.6832 40.7535 11.6017 40.4725 11.6017Z" fill="black"/>
<path d="M75.0023 22.1289H80.4803V42.6704H91.6453V47.1287H75.0023V22.1289Z" fill="white"/>
<path d="M110.012 38.669H98.2844C98.3777 40.332 98.8119 41.5415 99.5839 42.3038C100.356 43.0662 101.504 43.4457 103.026 43.4457C103.939 43.4457 104.853 43.2946 105.763 42.989C106.677 42.6866 107.519 42.2395 108.291 41.6541L109.697 45.2342C108.854 45.9129 107.806 46.4469 106.554 46.8329C105.303 47.2189 104.042 47.4119 102.781 47.4119C99.7834 47.4119 97.432 46.5852 95.7239 44.935C94.0159 43.2849 93.1603 41.0332 93.1603 38.1769C93.1603 36.3755 93.5302 34.764 94.2668 33.3487C95.0034 31.9333 96.0392 30.8333 97.3741 30.0484C98.709 29.2635 100.218 28.8711 101.903 28.8711C104.409 28.8711 106.387 29.6849 107.838 31.3125C109.289 32.9402 110.016 35.1339 110.016 37.897V38.669H110.012ZM99.6 33.4709C98.9792 34.0563 98.5771 34.912 98.3873 36.0346H105.445C105.165 33.7411 104.029 32.5928 102.038 32.5928C101.035 32.596 100.221 32.8887 99.6 33.4709Z" fill="white"/>
<path d="M130.239 36.353V47.132H124.938V36.5975C124.938 35.3559 124.709 34.4488 124.252 33.8762C123.796 33.3036 123.075 33.0174 122.094 33.0174C120.923 33.0174 119.987 33.3905 119.286 34.14C118.585 34.8894 118.234 35.8963 118.234 37.1604V47.132H112.927V34.4198C112.927 32.522 112.833 30.8268 112.647 29.3279H117.633L117.983 32.136C118.614 31.0841 119.44 30.2736 120.46 29.7139C121.48 29.1509 122.631 28.8711 123.918 28.8711C128.132 28.8711 130.239 31.364 130.239 36.353Z" fill="white"/>
<path d="M151.868 21.2861V47.1319H146.637V44.4975C146.1 45.411 145.338 46.1251 144.353 46.6398C143.369 47.1544 142.259 47.4118 141.018 47.4118C139.496 47.4118 138.139 47.0193 136.946 46.2345C135.752 45.4496 134.823 44.3495 134.153 42.9342C133.488 41.5189 133.153 39.8977 133.153 38.0706C133.153 36.2436 133.488 34.6352 134.153 33.2424C134.819 31.8496 135.746 30.772 136.926 30.0129C138.107 29.2538 139.474 28.871 141.018 28.871C142.211 28.871 143.302 29.1219 144.283 29.6269C145.267 30.1319 146.026 30.8267 146.567 31.7177V21.2861H151.868ZM145.582 42.0239C146.283 41.1232 146.634 39.8301 146.634 38.1446C146.634 36.4816 146.277 35.2014 145.563 34.3007C144.849 33.4 143.848 32.9497 142.562 32.9497C141.249 32.9497 140.233 33.3936 139.506 34.2846C138.779 35.1756 138.419 36.4398 138.419 38.077C138.419 39.7626 138.782 41.0685 139.506 41.9917C140.23 42.9181 141.249 43.3781 142.562 43.3781C143.874 43.3749 144.881 42.9245 145.582 42.0239Z" fill="white"/>
<path d="M155.731 29.3276H161.032V47.1318H155.731V29.3276Z" fill="white"/>
<path d="M158.381 26.5906C159.845 26.5906 161.032 25.4039 161.032 23.9401C161.032 22.4762 159.845 21.2896 158.381 21.2896C156.917 21.2896 155.731 22.4762 155.731 23.9401C155.731 25.4039 156.917 26.5906 158.381 26.5906Z" fill="white"/>
<path d="M182.242 36.353V47.132H176.941V36.5975C176.941 35.3559 176.713 34.4488 176.256 33.8762C175.799 33.3036 175.079 33.0174 174.098 33.0174C172.927 33.0174 171.991 33.3905 171.289 34.14C170.588 34.8894 170.238 35.8963 170.238 37.1604V47.132H164.936V34.4198C164.936 32.522 164.843 30.8268 164.657 29.3279H169.642L169.993 32.136C170.624 31.0841 171.45 30.2736 172.47 29.7139C173.49 29.1509 174.641 28.8711 175.928 28.8711C180.135 28.8711 182.242 31.364 182.242 36.353Z" fill="white"/>
<path d="M204.048 29.3277V46.3244C204.048 49.1551 203.228 51.3102 201.59 52.7867C199.953 54.2599 197.563 54.9997 194.427 54.9997C191.593 54.9997 189.135 54.4497 187.054 53.3496L187.862 49.4156C190.017 50.4932 192.146 51.0304 194.253 51.0304C195.775 51.0304 196.91 50.6733 197.66 49.9593C198.409 49.2452 198.782 48.1611 198.782 46.7104V43.6192C198.219 44.4845 197.434 45.205 196.431 45.7776C195.424 46.3502 194.311 46.6365 193.095 46.6365C191.551 46.6365 190.181 46.2665 188.987 45.5299C187.794 44.7933 186.858 43.7511 186.179 42.4033C185.501 41.0588 185.16 39.5051 185.16 37.7521C185.16 35.999 185.497 34.4453 186.179 33.1008C186.858 31.7562 187.794 30.714 188.987 29.9742C190.181 29.2344 191.551 28.8677 193.095 28.8677C194.337 28.8677 195.459 29.1379 196.466 29.6751C197.473 30.2122 198.245 30.9392 198.785 31.8527V29.3244H204.048V29.3277ZM197.676 41.3193C198.412 40.4637 198.782 39.2768 198.782 37.7553C198.782 36.2563 198.419 35.0822 197.695 34.2266C196.968 33.371 195.951 32.9464 194.639 32.9464C193.327 32.9464 192.297 33.3742 191.548 34.2266C190.798 35.0822 190.425 36.2563 190.425 37.7553C190.425 39.2542 190.798 40.4348 191.548 41.3032C192.297 42.1685 193.327 42.6028 194.639 42.6028C195.926 42.6028 196.939 42.175 197.676 41.3193Z" fill="white"/>
<path d="M237.089 36.4205C237.884 37.4723 238.283 38.7622 238.283 40.2837C238.283 42.3906 237.498 44.06 235.931 45.2888C234.362 46.5176 232.232 47.1319 229.54 47.1319H217.67V22.1289H229.189C231.788 22.1289 233.84 22.7079 235.352 23.8659C236.861 25.0239 237.617 26.6097 237.617 28.6233C237.617 29.9357 237.269 31.0808 236.581 32.0651C235.889 33.0494 234.937 33.7635 233.718 34.2074C235.172 34.632 236.295 35.3686 237.089 36.4205ZM223.01 32.3128H228.279C229.685 32.3128 230.73 32.0716 231.422 31.5923C232.113 31.113 232.457 30.37 232.457 29.3632C232.457 28.3338 232.113 27.5715 231.422 27.0793C230.73 26.5872 229.685 26.3427 228.279 26.3427H223.01V32.3128ZM232.123 42.1622C232.789 41.6604 233.123 40.8562 233.123 39.7562C233.123 38.6335 232.789 37.8133 232.123 37.2986C231.457 36.784 230.386 36.5266 228.909 36.5266H223.01V42.9181H228.909C230.383 42.9181 231.454 42.6672 232.123 42.1622Z" fill="white"/>
<path d="M257.316 38.669H245.588C245.681 40.332 246.115 41.5415 246.887 42.3038C247.659 43.0662 248.808 43.4457 250.329 43.4457C251.243 43.4457 252.156 43.2946 253.07 42.989C253.983 42.6866 254.826 42.2395 255.598 41.6541L257.004 45.2342C256.161 45.9129 255.112 46.4469 253.861 46.8329C252.61 47.2189 251.349 47.4119 250.085 47.4119C247.087 47.4119 244.735 46.5852 243.027 44.935C241.319 43.2849 240.464 41.0332 240.464 38.1769C240.464 36.3755 240.834 34.764 241.57 33.3487C242.307 31.9333 243.343 30.8333 244.678 30.0484C246.012 29.2635 247.521 28.8711 249.207 28.8711C251.712 28.8711 253.691 29.6849 255.141 31.3125C256.592 32.9402 257.319 35.1339 257.319 37.897V38.669H257.316ZM246.907 33.4709C246.286 34.0563 245.884 34.912 245.694 36.0346H252.751C252.472 33.7411 251.336 32.5928 249.345 32.5928C248.338 32.596 247.524 32.8887 246.907 33.4709Z" fill="white"/>
<path d="M276.207 38.669H264.479C264.573 40.332 265.007 41.5415 265.779 42.3038C266.551 43.0662 267.699 43.4457 269.221 43.4457C270.134 43.4457 271.048 43.2946 271.961 42.989C272.875 42.6866 273.717 42.2395 274.489 41.6541L275.895 45.2342C275.052 45.9129 274.004 46.4469 272.752 46.8329C271.501 47.2189 270.24 47.4119 268.976 47.4119C265.978 47.4119 263.627 46.5852 261.919 44.935C260.211 43.2849 259.355 41.0332 259.355 38.1769C259.355 36.3755 259.725 34.764 260.462 33.3487C261.198 31.9333 262.234 30.8333 263.569 30.0484C264.904 29.2635 266.412 28.8711 268.098 28.8711C270.604 28.8711 272.582 29.6849 274.033 31.3125C275.483 32.9402 276.21 35.1339 276.21 37.897V38.669H276.207ZM265.798 33.4709C265.177 34.0563 264.775 34.912 264.585 36.0346H271.643C271.363 33.7411 270.227 32.5928 268.236 32.5928C267.229 32.596 266.416 32.8887 265.798 33.4709Z" fill="white"/>
<path d="M285.822 28.0154V23.3384H287.839C288.244 23.3384 288.553 23.3802 288.765 23.4638C288.977 23.5475 289.145 23.6954 289.27 23.9077C289.395 24.12 289.46 24.3548 289.46 24.6122C289.46 24.9435 289.357 25.2233 289.148 25.4517C288.939 25.6801 288.617 25.8248 288.18 25.886C288.34 25.9664 288.459 26.0436 288.543 26.1176C288.72 26.2848 288.884 26.4907 289.042 26.7384L289.833 28.0122H289.077L288.476 27.0375C288.299 26.7577 288.154 26.5422 288.041 26.3942C287.929 26.2462 287.826 26.1401 287.736 26.0822C287.646 26.0211 287.556 25.9825 287.462 25.9567C287.395 25.9406 287.282 25.9342 287.128 25.9342H286.43V28.0122H285.822V28.0154ZM286.423 25.4035H287.716C287.993 25.4035 288.205 25.3745 288.363 25.3166C288.517 25.2587 288.636 25.1654 288.717 25.0368C288.797 24.9081 288.839 24.7698 288.839 24.6186C288.839 24.3967 288.762 24.2165 288.604 24.0718C288.447 23.9302 288.202 23.8595 287.864 23.8595H286.423V25.4035Z" fill="white"/>
<path d="M287.427 30.087C284.921 30.087 282.885 28.0477 282.885 25.5451C282.885 23.0426 284.921 21 287.427 21C289.932 21 291.969 23.0394 291.969 25.5419C291.969 28.0445 289.932 30.087 287.427 30.087ZM287.427 21.6433C285.278 21.6433 283.528 23.3932 283.528 25.5419C283.528 27.6906 285.278 29.4405 287.427 29.4405C289.575 29.4405 291.325 27.6906 291.325 25.5419C291.325 23.3932 289.575 21.6433 287.427 21.6433Z" fill="white"/>
<defs>
<linearGradient id="paint0_linear_7624_61" x1="33.7659" y1="15.824" x2="47.7556" y2="55.2949" gradientUnits="userSpaceOnUse">
<stop stop-color="#FFE174"/>
<stop offset="0.125" stop-color="#FFE174"/>
<stop offset="0.390625" stop-color="white"/>
<stop offset="0.635417" stop-color="#FFE174"/>
<stop offset="1" stop-color="#FFE174"/>
</linearGradient>
<radialGradient id="paint1_radial_7624_61" cx="0" cy="0" r="1" gradientUnits="userSpaceOnUse" gradientTransform="translate(30.4597 52.1894) rotate(112.099) scale(22.4163 21.5923)">
<stop offset="0.161458" stop-color="#BB1414"/>
<stop offset="1" stop-color="#BB1414" stop-opacity="0"/>
</radialGradient>
</defs>
</svg>
