<svg width="70" height="70" viewBox="0 0 70 70" fill="none" xmlns="http://www.w3.org/2000/svg">
<circle opacity="0.1" cx="35" cy="35" r="35" fill="#00AC8C"/>
<path d="M51.4667 21.5999C51.4667 21.2516 51.1817 20.9666 50.8333 20.9666C46.989 20.9729 43.873 24.0889 43.8667 27.9332C43.8667 28.2816 44.1517 28.5666 44.5 28.5666C48.3443 28.5602 51.4667 25.4442 51.4667 21.5999ZM50.162 22.2712C49.8453 24.8869 47.787 26.9452 45.1713 27.2619C45.488 24.6462 47.5463 22.5879 50.162 22.2712Z" fill="#00AC8C"/>
<path d="M19.1667 21.6001C18.8183 21.6001 18.5333 21.8851 18.5333 22.2334C18.5397 26.0778 21.6557 29.1938 25.5 29.2001C25.8483 29.2001 26.1333 28.9151 26.1333 28.5668C26.1333 24.7161 23.011 21.6001 19.1667 21.6001ZM19.8443 22.9048C22.46 23.2214 24.5183 25.2798 24.835 27.8954C22.213 27.5788 20.1547 25.5204 19.8443 22.9048Z" fill="#00AC8C"/>
<path d="M16.6333 51.9999C20.4777 51.9936 23.5937 48.8776 23.6 45.0332C23.6 44.6849 23.315 44.3999 22.9667 44.3999C19.1223 44.4062 16.0063 47.5222 16 51.3666C16 51.7149 16.285 51.9999 16.6333 51.9999ZM22.2953 45.7046C21.9787 48.3202 19.9203 50.3786 17.3047 50.6952C17.6213 48.0796 19.6797 46.0212 22.2953 45.7046Z" fill="#00AC8C"/>
<path d="M47.0333 44.3999C46.685 44.3999 46.4 44.6849 46.4 45.0332C46.4063 48.8776 49.5223 51.9936 53.3667 51.9999C53.715 51.9999 54 51.7149 54 51.3666C54 47.5159 50.8777 44.3999 47.0333 44.3999ZM47.711 45.7046C50.3267 46.0212 52.385 48.0796 52.7017 50.6952C50.0797 50.3786 48.0213 48.3202 47.711 45.7046Z" fill="#00AC8C"/>
<path d="M24.8667 36.971V42.9623C24.8667 43.3107 25.1517 43.5957 25.5 43.5957H27.5837V51.3667C27.5837 51.715 27.8687 52 28.217 52H41.783C42.1313 52 42.4163 51.715 42.4163 51.3667V43.5957H44.5C44.8483 43.5957 45.1333 43.3107 45.1333 42.9623V36.971C45.1333 33.0063 42.3023 29.6433 38.3313 28.4273C42.0997 26.5843 43.664 22.037 41.821 18.2623C40.548 15.653 37.9007 14 35 14C34.601 14 34.2083 14.0317 33.8157 14.095C29.6737 14.741 26.8427 18.6233 27.4887 22.7653C27.875 25.229 29.4457 27.3507 31.7003 28.4337C27.7293 29.656 24.8667 33.019 24.8667 36.971ZM28.6667 21.6C28.654 18.4777 30.934 15.8113 34.0247 15.349C34.3477 15.292 34.677 15.2667 35 15.2667C38.496 15.2667 41.327 18.0977 41.3333 21.5937C41.3333 24.9567 38.6987 27.737 35.342 27.9143C35.3167 27.9143 35.2913 27.9207 35.266 27.9207C35.1773 27.9333 35.0887 27.9333 35 27.9333C31.504 27.927 28.673 25.096 28.6667 21.6ZM35 29.2C35.1013 29.2 35.1963 29.2 35.3293 29.2127C40.1173 29.371 43.8667 32.7783 43.8667 36.971V42.329H41.783C41.4347 42.329 41.1497 42.614 41.1497 42.9623V50.7333H28.8503V42.9623C28.8503 42.614 28.5653 42.329 28.217 42.329H26.1333V36.971C26.1333 32.6833 30.1107 29.2 35 29.2Z" fill="#00AC8C"/>
<path d="M32.4666 20.3333C32.5996 20.3333 32.9543 20.802 33.0619 21.6697C33.1063 21.9863 33.366 22.2333 33.689 22.2333H33.6953C34.0689 22.2333 34.373 21.9103 34.3223 21.5367C34.145 20.0863 33.4039 19.0667 32.4666 19.0667C31.5293 19.0667 30.7883 20.0927 30.611 21.5367C30.5666 21.9103 30.8643 22.2333 31.238 22.2333H31.2443C31.5673 22.2333 31.827 21.9863 31.8713 21.6697C31.9853 20.802 32.3336 20.3333 32.4666 20.3333Z" fill="#00AC8C"/>
<path d="M37.5333 20.3333C37.6663 20.3333 38.0209 20.802 38.1286 21.6697C38.1729 21.9863 38.4326 22.2333 38.7556 22.2333H38.7619C39.1356 22.2333 39.4396 21.9103 39.3889 21.5367C39.2116 20.0863 38.4706 19.0667 37.5333 19.0667C36.5959 19.0667 35.8549 20.0927 35.6776 21.5367C35.6333 21.9103 35.9309 22.2333 36.3046 22.2333H36.3109C36.6339 22.2333 36.8936 21.9863 36.9379 21.6697C37.0519 20.802 37.4003 20.3333 37.5333 20.3333Z" fill="#00AC8C"/>
<path d="M37.4509 23.5C37.1469 23.5 36.9126 23.7153 36.8303 24.0067C36.6086 24.811 35.8739 25.4 34.9999 25.4C34.1259 25.4 33.3913 24.811 33.1696 24.0067C33.0873 23.7153 32.8529 23.5 32.5489 23.5C32.1373 23.5 31.8333 23.8927 31.9346 24.2917C32.2829 25.6597 33.5243 26.6667 34.9999 26.6667C36.4756 26.6667 37.7169 25.6597 38.0653 24.2917C38.1729 23.8863 37.8689 23.5 37.4509 23.5Z" fill="#00AC8C"/>
</svg>
