<svg width="70" height="70" viewBox="0 0 70 70" fill="none" xmlns="http://www.w3.org/2000/svg">
<circle opacity="0.1" cx="35" cy="35" r="35" fill="#ED1C24"/>
<path d="M34.38 18.3486C34.7802 18.4781 35.2111 18.4782 35.6113 18.3488L41.2534 16.5243C42.1878 16.2222 43.2033 16.6431 43.6499 17.5177L46.341 22.7874C46.5325 23.1625 46.8375 23.4675 47.2126 23.659L52.4823 26.3501C53.3569 26.7967 53.7778 27.8122 53.4757 28.7466L51.6512 34.3887C51.5218 34.7889 51.5219 35.2198 51.6514 35.62L53.475 41.253C53.7775 42.1875 53.3566 43.2034 52.4818 43.6502L47.2126 46.341C46.8375 46.5325 46.5325 46.8375 46.341 47.2126L43.6499 52.4823C43.2033 53.3569 42.1878 53.7778 41.2534 53.4757L35.6113 51.6512C35.2111 51.5218 34.7802 51.5219 34.38 51.6514L28.747 53.475C27.8125 53.7775 26.7966 53.3566 26.3498 52.4818L23.659 47.2126C23.4675 46.8375 23.1625 46.5325 22.7874 46.341L17.5182 43.6502C16.6434 43.2034 16.2225 42.1875 16.525 41.253L18.3486 35.62C18.4781 35.2198 18.4782 34.7889 18.3488 34.3887L16.5243 28.7466C16.2222 27.8122 16.6431 26.7967 17.5177 26.3501L22.7874 23.659C23.1625 23.4675 23.4675 23.1625 23.659 22.7874L26.3498 17.5182C26.7966 16.6434 27.8125 16.2225 28.747 16.525L34.38 18.3486Z" stroke="#ED1C24" stroke-width="1.5" stroke-miterlimit="10" stroke-linecap="round" stroke-linejoin="round"/>
<path d="M29.6994 43.9394L40.3446 25.5981" stroke="#ED1C24" stroke-width="1.5" stroke-miterlimit="10" stroke-linecap="round" stroke-linejoin="round"/>
<path d="M28.7656 34.6901C26.9943 34.6901 25.5982 33.294 25.5982 31.5227C25.5982 29.7514 26.9943 28.3728 28.7656 28.3728C30.5369 28.3728 31.9243 29.7514 31.9243 31.5227C31.9243 33.294 30.5369 34.6901 28.7656 34.6901Z" stroke="#ED1C24" stroke-width="1.5" stroke-miterlimit="10"/>
<path d="M40.8856 41.8454C39.1143 41.8454 37.7182 40.4493 37.7182 38.678C37.7182 36.9067 39.1143 35.5281 40.8856 35.5281C42.6569 35.5281 44.0442 36.9067 44.0442 38.678C44.0442 40.4493 42.6569 41.8454 40.8856 41.8454Z" stroke="#ED1C24" stroke-width="1.5" stroke-miterlimit="10"/>
</svg>
