<svg width="70" height="70" viewBox="0 0 70 70" fill="none" xmlns="http://www.w3.org/2000/svg">
<circle opacity="0.1" cx="35" cy="35" r="35" fill="#FF8F93"/>
<path d="M47.7902 54H21.8094C21.3642 54 21 53.6358 21 53.1906V16.8094C21 16.3642 21.3642 16 21.8094 16H42.1246C42.3431 16 42.5455 16.089 42.6993 16.2347L48.3649 21.9003C48.5186 22.0541 48.5996 22.2564 48.5996 22.475V53.1987C48.5996 53.6439 48.2435 54 47.7902 54ZM22.6268 52.3813H46.9889V22.8068L41.8008 17.6187H22.6268V52.3813Z" fill="#FF8F93"/>
<path d="M47.7903 23.2842H42.1247C41.6795 23.2842 41.3153 22.92 41.3153 22.4748V16.8092C41.3153 16.4855 41.5096 16.186 41.8171 16.0646C42.1247 15.9432 42.4646 16.0079 42.6993 16.2427L48.3649 21.9083C48.5996 22.143 48.6644 22.491 48.543 22.7905C48.4135 23.0818 48.1221 23.2842 47.7903 23.2842ZM42.9341 21.6654H45.8397L42.9341 18.7598V21.6654Z" fill="#FF8F93"/>
<path d="M39.1783 42.9845H30.518C30.0729 42.9845 29.7086 42.6202 29.7086 42.1751C29.7086 41.7299 30.0729 41.3657 30.518 41.3657H39.1783C39.6235 41.3657 39.9877 41.7299 39.9877 42.1751C39.9877 42.6202 39.6235 42.9845 39.1783 42.9845Z" fill="#FF8F93"/>
<path d="M39.1783 46.1815H30.518C30.0729 46.1815 29.7086 45.8173 29.7086 45.3721C29.7086 44.927 30.0729 44.5627 30.518 44.5627H39.1783C39.6235 44.5627 39.9877 44.927 39.9877 45.3721C39.9877 45.8173 39.6235 46.1815 39.1783 46.1815Z" fill="#FF8F93"/>
<path d="M33.2458 36.6471C33.0353 36.6471 32.833 36.5662 32.6711 36.4124L28.4543 32.1956C28.1386 31.8799 28.1386 31.37 28.4543 31.0543C28.77 30.7387 29.2799 30.7387 29.5955 31.0543L33.2458 34.7046L40.1416 27.8088C40.4573 27.4931 40.9672 27.4931 41.2828 27.8088C41.5985 28.1244 41.5985 28.6343 41.2828 28.95L33.8123 36.4205C33.6586 36.5743 33.4562 36.6471 33.2458 36.6471Z" fill="#FF8F93"/>
</svg>
