<svg width="70" height="70" viewBox="0 0 70 70" fill="none" xmlns="http://www.w3.org/2000/svg">
<circle opacity="0.1" cx="35" cy="35" r="35" fill="#FF7B00"/>
<path d="M45.2487 38.2487H35.1642C36.0809 36.6631 36.8324 32.6653 36.5844 31.5006C36.4191 30.6665 35.7503 30.2532 34.9988 30.2532C34.2474 30.2532 33.5786 30.6665 33.4133 31.5833C33.4959 33.9203 28.6641 39.8342 28.6641 39.8342V52.9997H41.3336C42.333 52.9997 43.1672 52.1656 43.1672 51.1662C43.1672 50.1668 42.333 49.3326 41.3336 49.3326H43.0845C44.0839 49.3326 44.9181 48.4985 44.9181 47.4991C44.9181 46.4997 44.0839 45.6655 43.0845 45.6655H44.1666C45.166 45.6655 46.0002 44.8314 46.0002 43.832C46.0002 42.8325 45.166 41.9984 44.1666 41.9984H45.2487C46.2481 41.9984 47.0823 41.1643 47.0823 40.1649C47.0823 39.0828 46.3308 38.2487 45.2487 38.2487Z" stroke="#FF7B00" stroke-width="1.5" stroke-miterlimit="10" stroke-linecap="round" stroke-linejoin="round"/>
<path d="M22.479 53H28.6485V39.8345H22.479V53V53Z" stroke="#FF7B00" stroke-width="1.5" stroke-miterlimit="10" stroke-linecap="round" stroke-linejoin="round"/>
<path d="M48.1633 24.9107L46.5852 21.5818L44.917 24.9107L41.2499 25.4142L43.9176 27.9992L43.2488 31.6663L46.5852 29.9154L49.8315 31.6663L49.1627 27.9992L51.8304 25.4142L48.1633 24.9107Z" stroke="#FF7B00" stroke-width="1.5" stroke-miterlimit="10" stroke-linecap="round" stroke-linejoin="round"/>
<path d="M28.5805 25.4142L24.9134 24.9107L23.2452 21.5818L21.6671 24.9107L18 25.4142L20.6602 27.9992L19.9989 31.6663L23.2452 29.9154L26.5816 31.6663L25.9128 27.9992L28.5805 25.4142Z" stroke="#FF7B00" stroke-width="1.5" stroke-miterlimit="10" stroke-linecap="round" stroke-linejoin="round"/>
<path d="M37.4177 16.3289L35.7495 13L34.1639 16.3289L30.4142 16.8324L33.0818 19.4099L32.4957 23.077L35.7495 21.4163L39.086 23.077L38.4172 19.4099L41.0848 16.8324L37.4177 16.3289Z" stroke="#FF7B00" stroke-width="1.5" stroke-miterlimit="10" stroke-linecap="round" stroke-linejoin="round"/>
<path d="M26.1461 50.8353C26.7437 50.8353 27.2282 50.3509 27.2282 49.7532C27.2282 49.1556 26.7437 48.6711 26.1461 48.6711C25.5484 48.6711 25.064 49.1556 25.064 49.7532C25.064 50.3509 25.5484 50.8353 26.1461 50.8353Z" fill="#FF7B00"/>
</svg>
