<svg width="70" height="70" viewBox="0 0 70 70" fill="none" xmlns="http://www.w3.org/2000/svg">
<circle opacity="0.1" cx="35" cy="35" r="35" fill="#00AC8C"/>
<path d="M47.3452 22.5252C47.3452 24.1942 46.7121 25.7913 45.5179 27.0647L40.1869 32.8777C39.7913 33.2733 38.9927 33.2733 38.597 32.8777L33.2661 27.0647C32.0719 25.7913 31.4388 24.1223 31.4388 22.5252V20.3741H47.3524V22.5252H47.3452ZM48.856 18.705C39.7049 18.705 40.1006 18.705 29.9136 18.705V17.5899H48.856V18.705ZM29.8345 45.7625V47.669H29.115C28.6402 47.669 28.3165 47.9855 28.3165 48.4676V51.1726C28.3165 51.6474 28.633 51.9711 29.115 51.9711H49.6474C50.1222 51.9711 50.4459 51.6546 50.4459 51.1726V48.4676C50.4459 47.9927 50.1294 47.669 49.6474 47.669H48.9279V45.5179C48.9279 43.446 48.1294 41.4604 46.6977 39.8704L41.3668 34.0575C41.3668 34.0575 41.2877 34.0575 41.2877 33.9784C41.2877 33.9784 41.3668 33.9784 41.3668 33.8992L46.6977 28.1726C48.1294 26.5827 48.9279 24.5899 48.9279 22.5252V20.3741H49.6474C50.1222 20.3741 50.4459 20.0575 50.4459 19.5755V16.8777C50.4459 16.4029 50.1294 16.0791 49.6474 16.0791L29.1222 16C28.6474 16 28.3237 16.3165 28.3237 16.7986V19.5036C28.3237 19.9784 28.6402 20.3021 29.1222 20.3021H29.8417V22.5324C29.8417 24.6043 30.6402 26.5899 32.0719 28.1798L37.3956 33.9856C37.3956 33.9856 37.4747 33.9856 37.4747 34.0647C37.4747 34.0647 37.3956 34.0647 37.3956 34.1438L32.0647 39.9568C30.9496 41.151 30.2373 42.5827 29.9927 44.0935L29.8345 45.7625ZM48.856 50.3812H29.9136V49.2661C39.0646 49.2661 38.669 49.2661 48.856 49.2661V50.3812ZM45.5107 40.9064C46.7049 42.1798 47.338 43.8489 47.338 45.5251V47.6762H31.4244V45.5251C31.4244 43.8561 32.0575 42.2589 33.2517 40.9064L38.5826 35.0935C38.9783 34.6978 39.7769 34.6978 40.1726 35.0935L45.5107 40.9064Z" fill="#00AC8C"/>
<path d="M28.3237 51.1727V50.5324C28.3165 50.5324 28.3021 50.5324 28.2949 50.5324C23.0072 50.5324 19.964 49.7626 19.4388 49.3381V45.6547C21.8273 46.6187 26.5251 46.7122 28.2949 46.7122C28.6834 46.7122 29.223 46.7051 29.8345 46.6907V45.7698L29.8849 45.2518C29.3741 45.2662 28.8489 45.2806 28.2949 45.2806C23.0072 45.2806 19.964 44.5108 19.4388 44.0864V40.4029C21.8273 41.3669 26.5251 41.4605 28.2949 41.4605C28.9136 41.4605 29.8849 41.4461 30.9928 41.3885C31.2949 40.8849 31.6475 40.4101 32.0647 39.9713L32.1582 39.8705C31.0431 39.9641 29.7554 40.0216 28.2949 40.0216C23.0072 40.0216 19.964 39.2518 19.4388 38.8274V35.1439C21.8273 36.108 26.5251 36.2015 28.2949 36.2015C29.8561 36.2015 33.705 36.1223 36.223 35.4461L37.3956 34.1655C37.3956 34.0864 37.4748 34.0864 37.4748 34.0864C37.4748 34.0072 37.3956 34.0072 37.3956 34.0072L37.0503 33.6331C36.3237 34.072 33.3309 34.7626 28.2949 34.7626C23.0072 34.7626 19.964 33.9929 19.4388 33.5684V29.8849C21.8273 30.849 26.5251 30.9425 28.2949 30.9425C29.482 30.9425 32 30.8993 34.2446 30.5756L33.0431 29.2662C31.7482 29.4101 30.1654 29.5037 28.2949 29.5037C23.5539 29.5037 20.6115 28.885 19.6763 28.4461C20.6115 28.0073 23.5539 27.3886 28.2949 27.3886C29.4748 27.3886 30.5395 27.4245 31.4964 27.4893C31.151 27.0145 30.8561 26.5181 30.6187 26.0001C29.669 25.9569 28.8417 25.9497 28.2949 25.9497C25.8777 25.9497 18 26.1296 18 28.4461V49.5036C18 51.8202 25.8777 52 28.2949 52C28.518 52 28.7841 52 29.0863 51.9928C28.6259 51.9496 28.3237 51.6403 28.3237 51.1727Z" fill="#00AC8C"/>
<path d="M31.1371 24.6188L30.3097 23.439C33.727 21.0361 37.6982 21.5613 41.1946 22.0217C43.691 22.3526 46.0579 22.662 47.7485 21.8274L48.3816 23.1152C46.2953 24.144 43.727 23.8059 41.0075 23.4461C37.6119 23.0073 34.0939 22.5397 31.1371 24.6188Z" fill="#00AC8C"/>
<path d="M39.2729 37.4242C39.1794 37.4242 39.0859 37.4099 38.9996 37.3739C38.9132 37.3379 38.8341 37.2876 38.7622 37.2156C38.6974 37.1509 38.647 37.0717 38.6111 36.9854C38.5751 36.8991 38.5535 36.8055 38.5535 36.712C38.5535 36.6617 38.5607 36.6113 38.5679 36.5681C38.5751 36.525 38.5895 36.4746 38.6111 36.4314C38.6255 36.3883 38.647 36.3451 38.6758 36.3091C38.7046 36.266 38.7334 36.23 38.7622 36.2012C38.8341 36.1293 38.9132 36.0789 38.9996 36.043C39.2657 35.935 39.5823 35.9998 39.7837 36.2012C39.9132 36.3307 39.9924 36.5178 39.9924 36.712C39.9924 36.8055 39.978 36.8991 39.942 36.9854C39.906 37.0717 39.8485 37.1509 39.7837 37.2156C39.7118 37.2876 39.6398 37.3379 39.5463 37.3739C39.46 37.4099 39.3665 37.4242 39.2729 37.4242Z" fill="#00AC8C"/>
<path d="M38.5535 40.3239C38.5535 39.9282 38.8773 39.6045 39.2729 39.6045C39.6686 39.6045 39.9924 39.9282 39.9924 40.3239C39.9924 40.7196 39.6686 41.0433 39.2729 41.0433C38.8773 41.0433 38.5535 40.7196 38.5535 40.3239Z" fill="#00AC8C"/>
<path d="M39.2729 44.6619C39.1794 44.6619 39.0859 44.6403 38.9996 44.6044C38.9132 44.5684 38.8341 44.518 38.7622 44.4461C38.6974 44.3813 38.647 44.3022 38.6111 44.2159C38.5751 44.1295 38.5535 44.036 38.5535 43.9425C38.5535 43.849 38.5751 43.7554 38.6111 43.6619C38.647 43.5756 38.6974 43.4964 38.7622 43.4317C38.8341 43.3669 38.9132 43.3094 38.9996 43.2734C39.2657 43.1655 39.5823 43.2303 39.7837 43.4317C39.8485 43.4964 39.8988 43.5756 39.942 43.6619C39.9708 43.7554 39.9924 43.849 39.9924 43.9425C39.9924 44.036 39.978 44.1295 39.942 44.2159C39.906 44.3022 39.8485 44.3813 39.7837 44.4461C39.719 44.518 39.6398 44.5684 39.5463 44.6044C39.46 44.6403 39.3665 44.6619 39.2729 44.6619Z" fill="#00AC8C"/>
</svg>
