<svg width="70" height="70" viewBox="0 0 70 70" fill="none" xmlns="http://www.w3.org/2000/svg">
<circle opacity="0.1" cx="35" cy="35" r="35" fill="#FFD437"/>
<path d="M29.6434 50.1913H32.3674C32.8656 50.1913 33.2754 49.7815 33.2754 49.2833C33.2754 48.7851 32.8656 48.3752 32.3674 48.3752H29.6434C29.1452 48.3752 28.7354 48.7851 28.7354 49.2833C28.7354 49.7815 29.1452 50.1913 29.6434 50.1913Z" fill="#FFD437"/>
<path d="M55.2123 22.292H29.1933C28.6951 22.292 28.2853 22.7018 28.2853 23.2V39.1746C28.2853 39.6728 28.6951 40.0826 29.1933 40.0826H55.2123C55.7105 40.0826 56.1204 39.6728 56.1204 39.1746V23.2C56.1204 22.7018 55.7105 22.292 55.2123 22.292ZM54.3043 38.2666H30.1013V24.108H54.3043V38.2666Z" fill="#FFD437"/>
<path d="M35.3808 36.579C36.1603 36.579 36.9156 36.2977 37.5103 35.7915C38.9004 36.9727 40.9736 36.7959 42.1548 35.4138C43.336 34.0237 43.1592 31.9505 41.7771 30.7693C40.5477 29.7247 38.7397 29.7247 37.5103 30.7693C36.1201 29.5961 34.0389 29.7649 32.8657 31.155C31.6925 32.5452 31.8613 34.6264 33.2514 35.7995C33.8461 36.3058 34.6014 36.579 35.3808 36.579ZM39.6397 31.8059C40.4593 31.8059 41.1182 32.4648 41.1182 33.2844C41.1182 34.104 40.4593 34.763 39.6397 34.763C39.2138 34.763 38.804 34.5781 38.5308 34.2567C38.7236 33.6219 38.7236 32.955 38.5308 32.3202C38.804 31.9907 39.2138 31.8059 39.6397 31.8059ZM35.3808 31.8059C36.2005 31.8059 36.8594 32.4648 36.8594 33.2844C36.8594 34.104 36.2005 34.763 35.3808 34.763C34.5612 34.763 33.9023 34.104 33.9023 33.2844C33.9023 32.4648 34.5612 31.8059 35.3808 31.8059Z" fill="#FFD437"/>
<path d="M45.337 27.6112H51.4118C51.91 27.6112 52.3198 27.2014 52.3198 26.7032C52.3198 26.205 51.91 25.7952 51.4118 25.7952H45.337C44.8388 25.7952 44.429 26.205 44.429 26.7032C44.429 27.2014 44.8307 27.6112 45.337 27.6112Z" fill="#FFD437"/>
<path d="M42.1709 44.5663H19.816V18.5392C19.816 18.1374 20.1375 17.816 20.5392 17.816H41.4396C41.8414 17.816 42.1628 18.1374 42.1628 18.5392V22.2918H43.9789V18.5392C43.9789 17.133 42.8378 16 41.4396 16H20.5392C19.133 16 18 17.141 18 18.5392V51.4608C18 52.867 19.141 54 20.5392 54H41.4396C42.8459 54 43.9789 52.859 43.9789 51.4608V40.0825H42.1628L42.1709 44.5663ZM42.1709 51.4608C42.1709 51.8625 41.8494 52.184 41.4477 52.184H20.5473C20.1455 52.184 19.8241 51.8625 19.8241 51.4608V46.3743H42.1789V51.4608H42.1709Z" fill="#FFD437"/>
</svg>
