<svg width="70" height="70" viewBox="0 0 70 70" fill="none" xmlns="http://www.w3.org/2000/svg">
<circle opacity="0.1" cx="35" cy="35" r="35" fill="#6572EB"/>
<path d="M48.2864 20.959C49.6106 21.2661 51.4878 21.7986 51.5765 22.331C51.6175 22.6382 51.5765 22.8156 51.4468 22.9522C50.696 23.8805 48.1772 24.5016 46.3205 24.5016H40.4844C38.6277 24.5016 36.1089 23.8805 35.3581 22.9522C35.2284 22.7747 35.1396 22.645 35.2284 22.331C35.3171 21.7576 37.1943 21.273 38.5185 20.959M37.9861 16.6245C35.6448 17.0682 31.556 18.2627 30.9349 21.4846C30.6277 23.0341 31.0236 24.488 31.9929 25.6825C33.4946 27.4982 36.0134 28.2491 37.9588 28.5563C37.3854 30.1467 36.2796 33.4163 35.44 36.2491C33.1465 36.2081 29.1192 36.1194 27.6175 36.1672C26.7779 36.1672 25.9792 36.5221 25.3649 37.1365C23.9929 38.5494 23.2898 42.2627 23.2898 48.1876L19.3581 50.2218C18.1226 50.8429 17.6311 52.3856 18.3001 53.6279C18.7437 54.5153 19.6243 54.9999 20.5526 54.9999C20.9485 54.9999 21.3512 54.9112 21.6994 54.6928L39.6925 45.3208C41.9929 44.3037 43.2762 42.9317 43.8018 41.5597C44.8188 39.1296 47.2079 31.5255 48.0884 28.6518C50.0338 28.4334 53.0373 27.7235 54.7642 25.6894C55.7813 24.4948 56.1362 23.0341 55.87 21.4914C55.2489 18.2627 51.1669 17.0682 48.8188 16.6313M28.4571 45.5392C28.5458 43.7235 28.7233 42.1808 28.9417 41.2047C31.242 41.2457 35.1328 41.2935 36.5048 41.3344L28.4571 45.5392Z" stroke="#6572EB" stroke-width="1.5" stroke-miterlimit="10" stroke-linecap="round" stroke-linejoin="round"/>
<path d="M43.3993 23.1706C46.2079 23.1706 48.4847 20.8939 48.4847 18.0853C48.4847 15.2768 46.2079 13 43.3993 13C40.5908 13 38.314 15.2768 38.314 18.0853C38.314 20.8939 40.5908 23.1706 43.3993 23.1706Z" stroke="#6572EB" stroke-width="1.5" stroke-miterlimit="10" stroke-linecap="round" stroke-linejoin="round"/>
</svg>
