<svg width="70" height="70" viewBox="0 0 70 70" fill="none" xmlns="http://www.w3.org/2000/svg">
<circle opacity="0.1" cx="35" cy="35" r="35" fill="#419EC8"/>
<path d="M35.4236 36.8544C29.678 36.8544 24.9964 32.1804 24.9964 26.4272C24.9964 20.674 29.678 16 35.4236 16C41.1692 16 45.8508 20.674 45.8508 26.4272C45.8508 32.1804 41.1768 36.8544 35.4236 36.8544ZM35.4236 17.4592C30.4836 17.4592 26.4632 21.4796 26.4632 26.4196C26.4632 31.3596 30.4836 35.38 35.4236 35.38C40.3636 35.38 44.384 31.3596 44.384 26.4196C44.384 21.4796 40.3712 17.4592 35.4236 17.4592Z" fill="#419EC8"/>
<path d="M51.1252 54.0002H19.7296C19.3268 54.0002 19 53.6734 19 53.2706C19 44.561 22.99 36.7786 29.1688 33.4498C29.4272 33.313 29.7312 33.3358 29.9668 33.5182C31.5552 34.7494 33.4476 35.3954 35.4312 35.3954C37.4148 35.3954 39.3072 34.7494 40.8956 33.5182C41.1236 33.3434 41.4352 33.313 41.6936 33.4498C47.8724 36.7786 51.8624 44.561 51.8624 53.2706C51.8548 53.6734 51.528 54.0002 51.1252 54.0002ZM20.4744 52.541H50.388C50.1828 44.8498 46.7172 38.063 41.3972 34.9622C39.634 36.201 37.582 36.8546 35.4312 36.8546C33.2804 36.8546 31.2208 36.201 29.4652 34.9622C24.1452 38.0554 20.6796 44.8498 20.4744 52.541Z" fill="#419EC8"/>
<path d="M35.4235 54.0002C35.1499 54.0002 34.8991 53.8482 34.7699 53.605L26.0071 36.4518C25.8247 36.0946 25.9691 35.6538 26.3263 35.4714C26.6835 35.289 27.1243 35.4334 27.3067 35.7906L35.4235 51.667L43.5175 35.7906C43.6999 35.4334 44.1407 35.289 44.4979 35.4714C44.8551 35.6538 44.9995 36.0946 44.8171 36.4518L36.0771 53.605C35.9555 53.8482 35.7047 54.0002 35.4235 54.0002Z" fill="#419EC8"/>
<path d="M36.389 40.2973H34.4662C34.1394 40.2973 33.8506 40.0845 33.767 39.7653L32.7866 36.3225C32.7258 36.1021 32.7714 35.8665 32.9082 35.6841C33.045 35.5017 33.2654 35.3953 33.4934 35.3953H37.3922C37.6202 35.3953 37.8406 35.5017 37.9774 35.6841C38.1142 35.8665 38.1598 36.1021 38.099 36.3225L37.111 39.7653C37.0046 40.0769 36.7158 40.2973 36.389 40.2973ZM35.0134 38.8381H35.8342L36.4042 36.8545H34.4434L35.0134 38.8381Z" fill="#419EC8"/>
<path d="M38.3572 48.3683C38.0304 48.3683 37.7264 48.1479 37.6504 47.8135L35.8188 40.2971H35.036L33.2044 47.8135C33.1056 48.2087 32.7104 48.4443 32.3228 48.3531C31.9276 48.2543 31.692 47.8591 31.7832 47.4715L33.7516 39.4003C33.8352 39.0735 34.124 38.8455 34.4584 38.8455H36.3812C36.7156 38.8455 37.012 39.0735 37.088 39.4003L39.0564 47.4715C39.1552 47.8667 38.912 48.2619 38.5168 48.3531C38.4712 48.3607 38.418 48.3683 38.3572 48.3683Z" fill="#419EC8"/>
</svg>
