<svg width="26" height="24" viewBox="0 0 26 24" fill="none" xmlns="http://www.w3.org/2000/svg">
<path d="M21.0661 8.95839C21.0328 5.16673 24.1661 3.32506 24.3161 3.2334C22.5411 0.641732 19.7828 0.283397 18.8078 0.258397C16.4911 0.0167308 14.2494 1.64173 13.0744 1.64173C11.8744 1.64173 10.0494 0.283399 8.09944 0.316732C5.58278 0.358399 3.22444 1.81673 1.93278 4.07506C-0.733887 8.69173 1.25778 15.4667 3.80778 19.2084C5.09111 21.0334 6.58278 23.0751 8.53278 23.0001C10.4411 22.9167 11.1578 21.7834 13.4661 21.7834C15.7494 21.7834 16.4244 23.0001 18.4161 22.9584C20.4661 22.9251 21.7578 21.1251 22.9911 19.2834C24.4661 17.1834 25.0578 15.1251 25.0911 15.0251C25.0411 15.0084 21.0994 13.5001 21.0661 8.95839Z" fill="white"/>
</svg>
