<svg width="162" height="90" viewBox="0 0 162 90" fill="none" xmlns="http://www.w3.org/2000/svg">
<circle opacity="0.1" cx="81" cy="72" r="18" fill="#ED1C24"/>
<circle cx="81" cy="72" r="6" fill="#ED1C24"/>
<g filter="url(#filter0_d_7538_14254)">
<rect x="80" y="27" width="12" height="12" transform="rotate(45 80 27)" fill="#ED1C24"/>
<rect x="8" width="146" height="36" rx="18" fill="#ED1C24"/>
</g>
<path d="M33.1615 24.022C33.6375 24.0873 33.9735 24.12 34.1695 24.12C34.6268 24.12 34.9395 24.008 35.1075 23.784C35.2755 23.56 35.3595 23.1587 35.3595 22.58V13.032H37.1655V22.58C37.1655 23.644 36.9648 24.414 36.5635 24.89C36.1621 25.3753 35.4761 25.618 34.5055 25.618C34.0575 25.618 33.6095 25.5807 33.1615 25.506V24.022ZM45.64 15.93V23H43.932V21.908C43.708 22.3 43.4094 22.5987 43.036 22.804C42.6627 23.0093 42.2334 23.112 41.748 23.112C40.0214 23.112 39.158 22.1413 39.158 20.2V15.93H40.894V20.214C40.894 20.7273 40.9967 21.1053 41.202 21.348C41.4167 21.5907 41.7434 21.712 42.182 21.712C42.6954 21.712 43.106 21.544 43.414 21.208C43.722 20.872 43.876 20.424 43.876 19.864V15.93H45.64ZM51.3479 15.762C51.6186 15.762 51.8519 15.7993 52.0479 15.874L52.0339 17.47C51.7352 17.3487 51.4272 17.288 51.1099 17.288C50.5126 17.288 50.0552 17.4607 49.7379 17.806C49.4299 18.1513 49.2759 18.6087 49.2759 19.178V23H47.5399V17.932C47.5399 17.1853 47.5026 16.518 47.4279 15.93H49.0659L49.2059 17.176C49.3832 16.7187 49.6632 16.3687 50.0459 16.126C50.4286 15.8833 50.8626 15.762 51.3479 15.762ZM56.0916 23.112C55.3729 23.112 54.7383 22.9627 54.1876 22.664C53.6463 22.3653 53.2263 21.9407 52.9276 21.39C52.6383 20.83 52.4936 20.1767 52.4936 19.43C52.4936 18.6833 52.6383 18.0347 52.9276 17.484C53.2263 16.924 53.6463 16.4947 54.1876 16.196C54.7383 15.8973 55.3729 15.748 56.0916 15.748C56.8009 15.748 57.4263 15.8973 57.9676 16.196C58.5089 16.4947 58.9243 16.924 59.2136 17.484C59.5123 18.0347 59.6616 18.6833 59.6616 19.43C59.6616 20.1767 59.5123 20.83 59.2136 21.39C58.9243 21.9407 58.5089 22.3653 57.9676 22.664C57.4263 22.9627 56.8009 23.112 56.0916 23.112ZM56.0776 21.74C56.6749 21.74 57.1276 21.5487 57.4356 21.166C57.7529 20.774 57.9116 20.1953 57.9116 19.43C57.9116 18.674 57.7529 18.1 57.4356 17.708C57.1183 17.3067 56.6703 17.106 56.0916 17.106C55.5036 17.106 55.0509 17.3067 54.7336 17.708C54.4163 18.1 54.2576 18.674 54.2576 19.43C54.2576 20.1953 54.4116 20.774 54.7196 21.166C55.0369 21.5487 55.4896 21.74 56.0776 21.74ZM65.2168 15.748C66.9061 15.748 67.7508 16.7187 67.7508 18.66V23H66.0008V18.744C66.0008 18.184 65.8934 17.778 65.6788 17.526C65.4641 17.2647 65.1328 17.134 64.6848 17.134C64.1528 17.134 63.7234 17.3067 63.3968 17.652C63.0701 17.988 62.9068 18.436 62.9068 18.996V23H61.1708V17.932C61.1708 17.1853 61.1334 16.518 61.0588 15.93H62.6968L62.8228 17.092C63.0654 16.6627 63.3921 16.3313 63.8028 16.098C64.2228 15.8647 64.6941 15.748 65.2168 15.748ZM76.4383 15.93V22.776C76.4383 23.8773 76.135 24.7127 75.5283 25.282C74.9216 25.8513 74.0303 26.136 72.8543 26.136C71.7623 26.136 70.801 25.9073 69.9703 25.45L70.2503 24.12C71.109 24.568 71.963 24.792 72.8123 24.792C74.0723 24.792 74.7023 24.1667 74.7023 22.916V21.516C74.4876 21.8987 74.175 22.2113 73.7643 22.454C73.3536 22.6873 72.8916 22.804 72.3783 22.804C71.7623 22.804 71.2116 22.6593 70.7263 22.37C70.2503 22.0713 69.877 21.656 69.6063 21.124C69.345 20.5827 69.2143 19.9667 69.2143 19.276C69.2143 18.5853 69.345 17.974 69.6063 17.442C69.877 16.9007 70.2503 16.4853 70.7263 16.196C71.2116 15.8973 71.7623 15.748 72.3783 15.748C72.901 15.748 73.363 15.86 73.7643 16.084C74.175 16.2987 74.4876 16.602 74.7023 16.994V15.93H76.4383ZM72.8403 21.432C73.419 21.432 73.8716 21.2407 74.1983 20.858C74.5343 20.4753 74.7023 19.948 74.7023 19.276C74.7023 18.604 74.539 18.0767 74.2123 17.694C73.8856 17.3113 73.4283 17.12 72.8403 17.12C72.2616 17.12 71.8043 17.3113 71.4683 17.694C71.1416 18.0767 70.9783 18.604 70.9783 19.276C70.9783 19.948 71.1416 20.4753 71.4683 20.858C71.8043 21.2407 72.2616 21.432 72.8403 21.432ZM88.4288 17.848C89.0074 18.016 89.4508 18.31 89.7588 18.73C90.0761 19.15 90.2348 19.668 90.2348 20.284C90.2348 21.1333 89.9314 21.8007 89.3248 22.286C88.7274 22.762 87.8921 23 86.8188 23H82.2968V13.032H86.6788C87.7054 13.032 88.5128 13.2653 89.1008 13.732C89.6888 14.1893 89.9828 14.824 89.9828 15.636C89.9828 16.1587 89.8428 16.616 89.5628 17.008C89.2921 17.3907 88.9141 17.6707 88.4288 17.848ZM84.0608 17.232H86.3848C87.6354 17.232 88.2608 16.7653 88.2608 15.832C88.2608 15.3653 88.1068 15.0153 87.7988 14.782C87.4908 14.5487 87.0194 14.432 86.3848 14.432H84.0608V17.232ZM86.6228 21.6C87.2761 21.6 87.7521 21.4833 88.0508 21.25C88.3588 21.0167 88.5128 20.648 88.5128 20.144C88.5128 19.6307 88.3588 19.2527 88.0508 19.01C87.7521 18.7673 87.2761 18.646 86.6228 18.646H84.0608V21.6H86.6228ZM95.6448 15.762C95.9154 15.762 96.1488 15.7993 96.3448 15.874L96.3308 17.47C96.0321 17.3487 95.7241 17.288 95.4068 17.288C94.8094 17.288 94.3521 17.4607 94.0348 17.806C93.7268 18.1513 93.5728 18.6087 93.5728 19.178V23H91.8368V17.932C91.8368 17.1853 91.7994 16.518 91.7248 15.93H93.3628L93.5028 17.176C93.6801 16.7187 93.9601 16.3687 94.3428 16.126C94.7254 15.8833 95.1594 15.762 95.6448 15.762ZM103.944 15.93V23H102.222V21.866C102.008 22.258 101.7 22.566 101.298 22.79C100.897 23.0047 100.44 23.112 99.9265 23.112C99.3105 23.112 98.7645 22.9627 98.2885 22.664C97.8125 22.3653 97.4438 21.9407 97.1825 21.39C96.9211 20.8393 96.7905 20.2 96.7905 19.472C96.7905 18.744 96.9211 18.1 97.1825 17.54C97.4531 16.9707 97.8265 16.532 98.3025 16.224C98.7785 15.9067 99.3198 15.748 99.9265 15.748C100.44 15.748 100.897 15.86 101.298 16.084C101.7 16.2987 102.008 16.602 102.222 16.994V15.93H103.944ZM100.402 21.74C100.981 21.74 101.429 21.5393 101.746 21.138C102.064 20.7367 102.222 20.172 102.222 19.444C102.222 18.6973 102.064 18.1233 101.746 17.722C101.429 17.3207 100.976 17.12 100.388 17.12C99.8098 17.12 99.3571 17.33 99.0305 17.75C98.7131 18.1607 98.5545 18.7347 98.5545 19.472C98.5545 20.2 98.7131 20.76 99.0305 21.152C99.3571 21.544 99.8145 21.74 100.402 21.74ZM109.896 15.748C111.586 15.748 112.43 16.7187 112.43 18.66V23H110.68V18.744C110.68 18.184 110.573 17.778 110.358 17.526C110.144 17.2647 109.812 17.134 109.364 17.134C108.832 17.134 108.403 17.3067 108.076 17.652C107.75 17.988 107.586 18.436 107.586 18.996V23H105.85V17.932C105.85 17.1853 105.813 16.518 105.738 15.93H107.376L107.502 17.092C107.745 16.6627 108.072 16.3313 108.482 16.098C108.902 15.8647 109.374 15.748 109.896 15.748ZM117.492 23.112C116.755 23.112 116.115 22.9627 115.574 22.664C115.033 22.3653 114.617 21.9453 114.328 21.404C114.039 20.8533 113.894 20.2093 113.894 19.472C113.894 18.7347 114.043 18.086 114.342 17.526C114.65 16.966 115.079 16.532 115.63 16.224C116.19 15.9067 116.834 15.748 117.562 15.748C118.066 15.748 118.551 15.8273 119.018 15.986C119.494 16.1447 119.872 16.364 120.152 16.644L119.662 17.876C119.363 17.6333 119.046 17.4513 118.71 17.33C118.374 17.1993 118.043 17.134 117.716 17.134C117.081 17.134 116.587 17.3347 116.232 17.736C115.877 18.128 115.7 18.6973 115.7 19.444C115.7 20.1907 115.873 20.76 116.218 21.152C116.573 21.544 117.072 21.74 117.716 21.74C118.043 21.74 118.374 21.6747 118.71 21.544C119.046 21.4133 119.363 21.2267 119.662 20.984L120.152 22.216C119.853 22.496 119.466 22.7153 118.99 22.874C118.514 23.0327 118.015 23.112 117.492 23.112ZM125.373 15.748C127.062 15.748 127.907 16.7187 127.907 18.66V23H126.157V18.744C126.157 18.184 126.05 17.778 125.835 17.526C125.62 17.2647 125.289 17.134 124.841 17.134C124.309 17.134 123.88 17.3067 123.553 17.652C123.226 17.988 123.063 18.436 123.063 18.996V23H121.327V12.696H123.063V16.952C123.306 16.5693 123.628 16.2753 124.029 16.07C124.43 15.8553 124.878 15.748 125.373 15.748Z" fill="white"/>
<defs>
<filter id="filter0_d_7538_14254" x="0" y="0" width="162" height="61.9706" filterUnits="userSpaceOnUse" color-interpolation-filters="sRGB">
<feFlood flood-opacity="0" result="BackgroundImageFix"/>
<feColorMatrix in="SourceAlpha" type="matrix" values="0 0 0 0 0 0 0 0 0 0 0 0 0 0 0 0 0 0 127 0" result="hardAlpha"/>
<feOffset dy="10"/>
<feGaussianBlur stdDeviation="4"/>
<feColorMatrix type="matrix" values="0 0 0 0 0.929412 0 0 0 0 0.109804 0 0 0 0 0.141176 0 0 0 0.1 0"/>
<feBlend mode="normal" in2="BackgroundImageFix" result="effect1_dropShadow_7538_14254"/>
<feBlend mode="normal" in="SourceGraphic" in2="effect1_dropShadow_7538_14254" result="shape"/>
</filter>
</defs>
</svg>
