<svg width="178" height="90" viewBox="0 0 178 90" fill="none" xmlns="http://www.w3.org/2000/svg">
<circle opacity="0.1" cx="89" cy="72" r="18" fill="#ED1C24"/>
<circle cx="89" cy="72" r="6" fill="#ED1C24"/>
<g filter="url(#filter0_d_7538_14262)">
<rect x="88" y="27" width="12" height="12" transform="rotate(45 88 27)" fill="#ED1C24"/>
<rect x="8" width="162" height="36" rx="18" fill="#ED1C24"/>
</g>
<path d="M46.7494 19.052V23H44.9434V19.052L40.8974 13.032H42.9554L45.8394 17.54L48.7374 13.032H50.7954L46.7494 19.052ZM51.2 15.93H52.936V23H51.2V15.93ZM53.034 12.724V14.446H51.088V12.724H53.034ZM57.4404 23.112C56.1618 23.112 55.1444 22.8133 54.3884 22.216L54.8784 20.984C55.6344 21.544 56.4978 21.824 57.4684 21.824C57.8884 21.824 58.2104 21.754 58.4344 21.614C58.6678 21.474 58.7844 21.278 58.7844 21.026C58.7844 20.8113 58.7051 20.6433 58.5464 20.522C58.3878 20.3913 58.1171 20.2793 57.7344 20.186L56.5584 19.92C55.2704 19.64 54.6264 18.982 54.6264 17.946C54.6264 17.5167 54.7478 17.1387 54.9904 16.812C55.2331 16.476 55.5738 16.2147 56.0124 16.028C56.4511 15.8413 56.9598 15.748 57.5384 15.748C58.0424 15.748 58.5278 15.8273 58.9944 15.986C59.4611 16.1353 59.8718 16.3547 60.2264 16.644L59.7084 17.834C58.9991 17.3113 58.2711 17.05 57.5244 17.05C57.1231 17.05 56.8104 17.1247 56.5864 17.274C56.3624 17.4233 56.2504 17.6287 56.2504 17.89C56.2504 18.0953 56.3158 18.2587 56.4464 18.38C56.5864 18.5013 56.8198 18.604 57.1464 18.688L58.3504 18.954C59.0504 19.1127 59.5591 19.36 59.8764 19.696C60.2031 20.0227 60.3664 20.452 60.3664 20.984C60.3664 21.6373 60.1051 22.1553 59.5824 22.538C59.0598 22.9207 58.3458 23.112 57.4404 23.112ZM65.9101 15.748C67.5994 15.748 68.4441 16.7187 68.4441 18.66V23H66.6941V18.744C66.6941 18.184 66.5868 17.778 66.3721 17.526C66.1574 17.2647 65.8261 17.134 65.3781 17.134C64.8461 17.134 64.4168 17.3067 64.0901 17.652C63.7634 17.988 63.6001 18.436 63.6001 18.996V23H61.8641V12.696H63.6001V16.952C63.8428 16.5693 64.1648 16.2753 64.5661 16.07C64.9674 15.8553 65.4154 15.748 65.9101 15.748ZM76.7397 15.93V23H75.0317V21.908C74.8077 22.3 74.509 22.5987 74.1357 22.804C73.7623 23.0093 73.333 23.112 72.8477 23.112C71.121 23.112 70.2577 22.1413 70.2577 20.2V15.93H71.9937V20.214C71.9937 20.7273 72.0963 21.1053 72.3017 21.348C72.5163 21.5907 72.843 21.712 73.2817 21.712C73.795 21.712 74.2057 21.544 74.5137 21.208C74.8217 20.872 74.9757 20.424 74.9757 19.864V15.93H76.7397ZM82.6855 15.748C84.3748 15.748 85.2195 16.7187 85.2195 18.66V23H83.4695V18.744C83.4695 18.184 83.3622 17.778 83.1475 17.526C82.9328 17.2647 82.6015 17.134 82.1535 17.134C81.6215 17.134 81.1922 17.3067 80.8655 17.652C80.5388 17.988 80.3755 18.436 80.3755 18.996V23H78.6395V17.932C78.6395 17.1853 78.6022 16.518 78.5275 15.93H80.1655L80.2915 17.092C80.5342 16.6627 80.8608 16.3313 81.2715 16.098C81.6915 15.8647 82.1628 15.748 82.6855 15.748ZM97.1748 17.848C97.7535 18.016 98.1968 18.31 98.5048 18.73C98.8222 19.15 98.9808 19.668 98.9808 20.284C98.9808 21.1333 98.6775 21.8007 98.0708 22.286C97.4735 22.762 96.6382 23 95.5648 23H91.0428V13.032H95.4248C96.4515 13.032 97.2588 13.2653 97.8468 13.732C98.4348 14.1893 98.7288 14.824 98.7288 15.636C98.7288 16.1587 98.5888 16.616 98.3088 17.008C98.0382 17.3907 97.6602 17.6707 97.1748 17.848ZM92.8068 17.232H95.1308C96.3815 17.232 97.0068 16.7653 97.0068 15.832C97.0068 15.3653 96.8528 15.0153 96.5448 14.782C96.2368 14.5487 95.7655 14.432 95.1308 14.432H92.8068V17.232ZM95.3688 21.6C96.0222 21.6 96.4982 21.4833 96.7968 21.25C97.1048 21.0167 97.2588 20.648 97.2588 20.144C97.2588 19.6307 97.1048 19.2527 96.7968 19.01C96.4982 18.7673 96.0222 18.646 95.3688 18.646H92.8068V21.6H95.3688ZM104.391 15.762C104.662 15.762 104.895 15.7993 105.091 15.874L105.077 17.47C104.778 17.3487 104.47 17.288 104.153 17.288C103.556 17.288 103.098 17.4607 102.781 17.806C102.473 18.1513 102.319 18.6087 102.319 19.178V23H100.583V17.932C100.583 17.1853 100.546 16.518 100.471 15.93H102.109L102.249 17.176C102.426 16.7187 102.706 16.3687 103.089 16.126C103.472 15.8833 103.906 15.762 104.391 15.762ZM112.691 15.93V23H110.969V21.866C110.754 22.258 110.446 22.566 110.045 22.79C109.643 23.0047 109.186 23.112 108.673 23.112C108.057 23.112 107.511 22.9627 107.035 22.664C106.559 22.3653 106.19 21.9407 105.929 21.39C105.667 20.8393 105.537 20.2 105.537 19.472C105.537 18.744 105.667 18.1 105.929 17.54C106.199 16.9707 106.573 16.532 107.049 16.224C107.525 15.9067 108.066 15.748 108.673 15.748C109.186 15.748 109.643 15.86 110.045 16.084C110.446 16.2987 110.754 16.602 110.969 16.994V15.93H112.691ZM109.149 21.74C109.727 21.74 110.175 21.5393 110.493 21.138C110.81 20.7367 110.969 20.172 110.969 19.444C110.969 18.6973 110.81 18.1233 110.493 17.722C110.175 17.3207 109.723 17.12 109.135 17.12C108.556 17.12 108.103 17.33 107.777 17.75C107.459 18.1607 107.301 18.7347 107.301 19.472C107.301 20.2 107.459 20.76 107.777 21.152C108.103 21.544 108.561 21.74 109.149 21.74ZM118.643 15.748C120.332 15.748 121.177 16.7187 121.177 18.66V23H119.427V18.744C119.427 18.184 119.319 17.778 119.105 17.526C118.89 17.2647 118.559 17.134 118.111 17.134C117.579 17.134 117.149 17.3067 116.823 17.652C116.496 17.988 116.333 18.436 116.333 18.996V23H114.597V17.932C114.597 17.1853 114.559 16.518 114.485 15.93H116.123L116.249 17.092C116.491 16.6627 116.818 16.3313 117.229 16.098C117.649 15.8647 118.12 15.748 118.643 15.748ZM126.238 23.112C125.501 23.112 124.861 22.9627 124.32 22.664C123.779 22.3653 123.363 21.9453 123.074 21.404C122.785 20.8533 122.64 20.2093 122.64 19.472C122.64 18.7347 122.789 18.086 123.088 17.526C123.396 16.966 123.825 16.532 124.376 16.224C124.936 15.9067 125.58 15.748 126.308 15.748C126.812 15.748 127.297 15.8273 127.764 15.986C128.24 16.1447 128.618 16.364 128.898 16.644L128.408 17.876C128.109 17.6333 127.792 17.4513 127.456 17.33C127.12 17.1993 126.789 17.134 126.462 17.134C125.827 17.134 125.333 17.3347 124.978 17.736C124.623 18.128 124.446 18.6973 124.446 19.444C124.446 20.1907 124.619 20.76 124.964 21.152C125.319 21.544 125.818 21.74 126.462 21.74C126.789 21.74 127.12 21.6747 127.456 21.544C127.792 21.4133 128.109 21.2267 128.408 20.984L128.898 22.216C128.599 22.496 128.212 22.7153 127.736 22.874C127.26 23.0327 126.761 23.112 126.238 23.112ZM134.119 15.748C135.808 15.748 136.653 16.7187 136.653 18.66V23H134.903V18.744C134.903 18.184 134.796 17.778 134.581 17.526C134.366 17.2647 134.035 17.134 133.587 17.134C133.055 17.134 132.626 17.3067 132.299 17.652C131.972 17.988 131.809 18.436 131.809 18.996V23H130.073V12.696H131.809V16.952C132.052 16.5693 132.374 16.2753 132.775 16.07C133.176 15.8553 133.624 15.748 134.119 15.748Z" fill="white"/>
<defs>
<filter id="filter0_d_7538_14262" x="0" y="0" width="178" height="61.9706" filterUnits="userSpaceOnUse" color-interpolation-filters="sRGB">
<feFlood flood-opacity="0" result="BackgroundImageFix"/>
<feColorMatrix in="SourceAlpha" type="matrix" values="0 0 0 0 0 0 0 0 0 0 0 0 0 0 0 0 0 0 127 0" result="hardAlpha"/>
<feOffset dy="10"/>
<feGaussianBlur stdDeviation="4"/>
<feColorMatrix type="matrix" values="0 0 0 0 0.929412 0 0 0 0 0.109804 0 0 0 0 0.141176 0 0 0 0.1 0"/>
<feBlend mode="normal" in2="BackgroundImageFix" result="effect1_dropShadow_7538_14262"/>
<feBlend mode="normal" in="SourceGraphic" in2="effect1_dropShadow_7538_14262" result="shape"/>
</filter>
</defs>
</svg>
