<svg width="192" height="90" viewBox="0 0 192 90" fill="none" xmlns="http://www.w3.org/2000/svg">
<circle opacity="0.1" cx="96" cy="72" r="18" fill="#ED1C24"/>
<circle cx="96" cy="72" r="6" fill="#ED1C24"/>
<g filter="url(#filter0_d_7538_14270)">
<rect x="95" y="27" width="12" height="12" transform="rotate(45 95 27)" fill="#ED1C24"/>
<rect x="8" width="176" height="36" rx="18" fill="#ED1C24"/>
</g>
<path d="M35.2129 17.848C35.7916 18.016 36.2349 18.31 36.5429 18.73C36.8603 19.15 37.0189 19.668 37.0189 20.284C37.0189 21.1333 36.7156 21.8007 36.1089 22.286C35.5116 22.762 34.6763 23 33.6029 23H29.0809V13.032H33.4629C34.4896 13.032 35.2969 13.2653 35.8849 13.732C36.4729 14.1893 36.7669 14.824 36.7669 15.636C36.7669 16.1587 36.6269 16.616 36.3469 17.008C36.0763 17.3907 35.6983 17.6707 35.2129 17.848ZM30.8449 17.232H33.1689C34.4196 17.232 35.0449 16.7653 35.0449 15.832C35.0449 15.3653 34.8909 15.0153 34.5829 14.782C34.2749 14.5487 33.8036 14.432 33.1689 14.432H30.8449V17.232ZM33.4069 21.6C34.0603 21.6 34.5363 21.4833 34.8349 21.25C35.1429 21.0167 35.2969 20.648 35.2969 20.144C35.2969 19.6307 35.1429 19.2527 34.8349 19.01C34.5363 18.7673 34.0603 18.646 33.4069 18.646H30.8449V21.6H33.4069ZM44.8089 19.556H39.9369C39.9743 20.312 40.1609 20.872 40.4969 21.236C40.8423 21.5907 41.3509 21.768 42.0229 21.768C42.7976 21.768 43.5163 21.516 44.1789 21.012L44.6829 22.216C44.3469 22.4867 43.9316 22.706 43.4369 22.874C42.9516 23.0327 42.4569 23.112 41.9529 23.112C40.7956 23.112 39.8856 22.7853 39.2229 22.132C38.5603 21.4787 38.2289 20.5827 38.2289 19.444C38.2289 18.7253 38.3736 18.086 38.6629 17.526C38.9523 16.966 39.3583 16.532 39.8809 16.224C40.4036 15.9067 40.9963 15.748 41.6589 15.748C42.6296 15.748 43.3949 16.0653 43.9549 16.7C44.5243 17.3253 44.8089 18.1887 44.8089 19.29V19.556ZM41.7009 17.008C41.2343 17.008 40.8516 17.148 40.5529 17.428C40.2636 17.6987 40.0769 18.0953 39.9929 18.618H43.2829C43.2269 18.086 43.0636 17.6847 42.7929 17.414C42.5316 17.1433 42.1676 17.008 41.7009 17.008ZM53.0529 12.696V23H51.3309V21.866C51.1162 22.258 50.8082 22.566 50.4069 22.79C50.0055 23.0047 49.5482 23.112 49.0349 23.112C48.4282 23.112 47.8869 22.958 47.4109 22.65C46.9349 22.342 46.5615 21.908 46.2909 21.348C46.0295 20.7787 45.8989 20.13 45.8989 19.402C45.8989 18.674 46.0295 18.0347 46.2909 17.484C46.5522 16.9333 46.9209 16.5087 47.3969 16.21C47.8729 15.902 48.4189 15.748 49.0349 15.748C49.5389 15.748 49.9869 15.8553 50.3789 16.07C50.7802 16.2753 51.0882 16.5693 51.3029 16.952V12.696H53.0529ZM49.4969 21.74C50.0755 21.74 50.5235 21.5393 50.8409 21.138C51.1675 20.7367 51.3309 20.1673 51.3309 19.43C51.3309 18.6927 51.1722 18.1233 50.8549 17.722C50.5375 17.3207 50.0895 17.12 49.5109 17.12C48.9229 17.12 48.4655 17.3207 48.1389 17.722C47.8215 18.114 47.6629 18.674 47.6629 19.402C47.6629 20.1393 47.8215 20.7133 48.1389 21.124C48.4655 21.5347 48.9182 21.74 49.4969 21.74ZM58.1648 23.112C57.4462 23.112 56.8115 22.9627 56.2608 22.664C55.7195 22.3653 55.2995 21.9407 55.0008 21.39C54.7115 20.83 54.5668 20.1767 54.5668 19.43C54.5668 18.6833 54.7115 18.0347 55.0008 17.484C55.2995 16.924 55.7195 16.4947 56.2608 16.196C56.8115 15.8973 57.4462 15.748 58.1648 15.748C58.8742 15.748 59.4995 15.8973 60.0408 16.196C60.5822 16.4947 60.9975 16.924 61.2868 17.484C61.5855 18.0347 61.7348 18.6833 61.7348 19.43C61.7348 20.1767 61.5855 20.83 61.2868 21.39C60.9975 21.9407 60.5822 22.3653 60.0408 22.664C59.4995 22.9627 58.8742 23.112 58.1648 23.112ZM58.1508 21.74C58.7482 21.74 59.2008 21.5487 59.5088 21.166C59.8262 20.774 59.9848 20.1953 59.9848 19.43C59.9848 18.674 59.8262 18.1 59.5088 17.708C59.1915 17.3067 58.7435 17.106 58.1648 17.106C57.5768 17.106 57.1242 17.3067 56.8068 17.708C56.4895 18.1 56.3308 18.674 56.3308 19.43C56.3308 20.1953 56.4848 20.774 56.7928 21.166C57.1102 21.5487 57.5628 21.74 58.1508 21.74ZM68.074 23L64.98 19.738V23H63.244V12.696H64.98V19.052L67.892 15.944H70.006L66.828 19.318L70.258 23H68.074ZM83.3227 13.032V23H81.9787L76.6027 16.014V23H74.9227V13.032H76.2667L81.6287 20.004V13.032H83.3227ZM88.5711 23.112C87.8524 23.112 87.2178 22.9627 86.6671 22.664C86.1258 22.3653 85.7058 21.9407 85.4071 21.39C85.1178 20.83 84.9731 20.1767 84.9731 19.43C84.9731 18.6833 85.1178 18.0347 85.4071 17.484C85.7058 16.924 86.1258 16.4947 86.6671 16.196C87.2178 15.8973 87.8524 15.748 88.5711 15.748C89.2804 15.748 89.9058 15.8973 90.4471 16.196C90.9884 16.4947 91.4038 16.924 91.6931 17.484C91.9918 18.0347 92.1411 18.6833 92.1411 19.43C92.1411 20.1767 91.9918 20.83 91.6931 21.39C91.4038 21.9407 90.9884 22.3653 90.4471 22.664C89.9058 22.9627 89.2804 23.112 88.5711 23.112ZM88.5571 21.74C89.1544 21.74 89.6071 21.5487 89.9151 21.166C90.2324 20.774 90.3911 20.1953 90.3911 19.43C90.3911 18.674 90.2324 18.1 89.9151 17.708C89.5978 17.3067 89.1498 17.106 88.5711 17.106C87.9831 17.106 87.5304 17.3067 87.2131 17.708C86.8958 18.1 86.7371 18.674 86.7371 19.43C86.7371 20.1953 86.8911 20.774 87.1991 21.166C87.5164 21.5487 87.9691 21.74 88.5571 21.74ZM97.4582 15.762C97.7289 15.762 97.9622 15.7993 98.1582 15.874L98.1442 17.47C97.8456 17.3487 97.5376 17.288 97.2202 17.288C96.6229 17.288 96.1656 17.4607 95.8482 17.806C95.5402 18.1513 95.3862 18.6087 95.3862 19.178V23H93.6502V17.932C93.6502 17.1853 93.6129 16.518 93.5382 15.93H95.1762L95.3162 17.176C95.4936 16.7187 95.7736 16.3687 96.1562 16.126C96.5389 15.8833 96.9729 15.762 97.4582 15.762ZM102.001 17.246V20.41C102.001 21.2407 102.389 21.656 103.163 21.656C103.378 21.656 103.611 21.6187 103.863 21.544V22.93C103.555 23.042 103.182 23.098 102.743 23.098C101.941 23.098 101.325 22.874 100.895 22.426C100.466 21.978 100.251 21.334 100.251 20.494V17.246H98.8932V15.93H100.251V14.208L102.001 13.62V15.93H103.877V17.246H102.001ZM109.126 15.748C110.815 15.748 111.66 16.7187 111.66 18.66V23H109.91V18.744C109.91 18.184 109.803 17.778 109.588 17.526C109.373 17.2647 109.042 17.134 108.594 17.134C108.062 17.134 107.633 17.3067 107.306 17.652C106.979 17.988 106.816 18.436 106.816 18.996V23H105.08V12.696H106.816V16.952C107.059 16.5693 107.381 16.2753 107.782 16.07C108.183 15.8553 108.631 15.748 109.126 15.748ZM123.615 17.848C124.194 18.016 124.637 18.31 124.945 18.73C125.263 19.15 125.421 19.668 125.421 20.284C125.421 21.1333 125.118 21.8007 124.511 22.286C123.914 22.762 123.079 23 122.005 23H117.483V13.032H121.865C122.892 13.032 123.699 13.2653 124.287 13.732C124.875 14.1893 125.169 14.824 125.169 15.636C125.169 16.1587 125.029 16.616 124.749 17.008C124.479 17.3907 124.101 17.6707 123.615 17.848ZM119.247 17.232H121.571C122.822 17.232 123.447 16.7653 123.447 15.832C123.447 15.3653 123.293 15.0153 122.985 14.782C122.677 14.5487 122.206 14.432 121.571 14.432H119.247V17.232ZM121.809 21.6C122.463 21.6 122.939 21.4833 123.237 21.25C123.545 21.0167 123.699 20.648 123.699 20.144C123.699 19.6307 123.545 19.2527 123.237 19.01C122.939 18.7673 122.463 18.646 121.809 18.646H119.247V21.6H121.809ZM130.831 15.762C131.102 15.762 131.335 15.7993 131.531 15.874L131.517 17.47C131.219 17.3487 130.911 17.288 130.593 17.288C129.996 17.288 129.539 17.4607 129.221 17.806C128.913 18.1513 128.759 18.6087 128.759 19.178V23H127.023V17.932C127.023 17.1853 126.986 16.518 126.911 15.93H128.549L128.689 17.176C128.867 16.7187 129.147 16.3687 129.529 16.126C129.912 15.8833 130.346 15.762 130.831 15.762ZM139.131 15.93V23H137.409V21.866C137.194 22.258 136.886 22.566 136.485 22.79C136.084 23.0047 135.626 23.112 135.113 23.112C134.497 23.112 133.951 22.9627 133.475 22.664C132.999 22.3653 132.63 21.9407 132.369 21.39C132.108 20.8393 131.977 20.2 131.977 19.472C131.977 18.744 132.108 18.1 132.369 17.54C132.64 16.9707 133.013 16.532 133.489 16.224C133.965 15.9067 134.506 15.748 135.113 15.748C135.626 15.748 136.084 15.86 136.485 16.084C136.886 16.2987 137.194 16.602 137.409 16.994V15.93H139.131ZM135.589 21.74C136.168 21.74 136.616 21.5393 136.933 21.138C137.25 20.7367 137.409 20.172 137.409 19.444C137.409 18.6973 137.25 18.1233 136.933 17.722C136.616 17.3207 136.163 17.12 135.575 17.12C134.996 17.12 134.544 17.33 134.217 17.75C133.9 18.1607 133.741 18.7347 133.741 19.472C133.741 20.2 133.9 20.76 134.217 21.152C134.544 21.544 135.001 21.74 135.589 21.74ZM145.083 15.748C146.772 15.748 147.617 16.7187 147.617 18.66V23H145.867V18.744C145.867 18.184 145.76 17.778 145.545 17.526C145.33 17.2647 144.999 17.134 144.551 17.134C144.019 17.134 143.59 17.3067 143.263 17.652C142.936 17.988 142.773 18.436 142.773 18.996V23H141.037V17.932C141.037 17.1853 141 16.518 140.925 15.93H142.563L142.689 17.092C142.932 16.6627 143.258 16.3313 143.669 16.098C144.089 15.8647 144.56 15.748 145.083 15.748ZM152.679 23.112C151.941 23.112 151.302 22.9627 150.761 22.664C150.219 22.3653 149.804 21.9453 149.515 21.404C149.225 20.8533 149.081 20.2093 149.081 19.472C149.081 18.7347 149.23 18.086 149.529 17.526C149.837 16.966 150.266 16.532 150.817 16.224C151.377 15.9067 152.021 15.748 152.749 15.748C153.253 15.748 153.738 15.8273 154.205 15.986C154.681 16.1447 155.059 16.364 155.339 16.644L154.849 17.876C154.55 17.6333 154.233 17.4513 153.897 17.33C153.561 17.1993 153.229 17.134 152.903 17.134C152.268 17.134 151.773 17.3347 151.419 17.736C151.064 18.128 150.887 18.6973 150.887 19.444C150.887 20.1907 151.059 20.76 151.405 21.152C151.759 21.544 152.259 21.74 152.903 21.74C153.229 21.74 153.561 21.6747 153.897 21.544C154.233 21.4133 154.55 21.2267 154.849 20.984L155.339 22.216C155.04 22.496 154.653 22.7153 154.177 22.874C153.701 23.0327 153.201 23.112 152.679 23.112ZM160.56 15.748C162.249 15.748 163.094 16.7187 163.094 18.66V23H161.344V18.744C161.344 18.184 161.236 17.778 161.022 17.526C160.807 17.2647 160.476 17.134 160.028 17.134C159.496 17.134 159.066 17.3067 158.74 17.652C158.413 17.988 158.25 18.436 158.25 18.996V23H156.514V12.696H158.25V16.952C158.492 16.5693 158.814 16.2753 159.216 16.07C159.617 15.8553 160.065 15.748 160.56 15.748Z" fill="white"/>
<defs>
<filter id="filter0_d_7538_14270" x="0" y="0" width="192" height="61.9706" filterUnits="userSpaceOnUse" color-interpolation-filters="sRGB">
<feFlood flood-opacity="0" result="BackgroundImageFix"/>
<feColorMatrix in="SourceAlpha" type="matrix" values="0 0 0 0 0 0 0 0 0 0 0 0 0 0 0 0 0 0 127 0" result="hardAlpha"/>
<feOffset dy="10"/>
<feGaussianBlur stdDeviation="4"/>
<feColorMatrix type="matrix" values="0 0 0 0 0.929412 0 0 0 0 0.109804 0 0 0 0 0.141176 0 0 0 0.1 0"/>
<feBlend mode="normal" in2="BackgroundImageFix" result="effect1_dropShadow_7538_14270"/>
<feBlend mode="normal" in="SourceGraphic" in2="effect1_dropShadow_7538_14270" result="shape"/>
</filter>
</defs>
</svg>
