<svg width="162" height="90" viewBox="0 0 162 90" fill="none" xmlns="http://www.w3.org/2000/svg">
<circle opacity="0.1" cx="81" cy="72" r="18" fill="#ED1C24"/>
<circle cx="81" cy="72" r="6" fill="#ED1C24"/>
<g filter="url(#filter0_d_7538_14246)">
<rect x="80" y="27" width="12" height="12" transform="rotate(45 80 27)" fill="#ED1C24"/>
<rect x="8" width="146" height="36" rx="18" fill="#ED1C24"/>
</g>
<path d="M33.5303 23.126C32.569 23.126 31.729 22.9207 31.0103 22.51C30.301 22.09 29.7503 21.4973 29.3583 20.732C28.9757 19.9573 28.7843 19.0473 28.7843 18.002C28.7843 16.966 28.9757 16.0653 29.3583 15.3C29.741 14.5253 30.287 13.9327 30.9963 13.522C31.715 13.1113 32.5597 12.906 33.5303 12.906C34.501 12.906 35.341 13.1113 36.0503 13.522C36.769 13.9327 37.315 14.5253 37.6883 15.3C38.071 16.0653 38.2623 16.966 38.2623 18.002C38.2623 19.0473 38.071 19.9573 37.6883 20.732C37.3057 21.4973 36.7597 22.09 36.0503 22.51C35.341 22.9207 34.501 23.126 33.5303 23.126ZM33.5303 21.684C34.4543 21.684 35.173 21.3667 35.6863 20.732C36.1997 20.0973 36.4563 19.1873 36.4563 18.002C36.4563 16.826 36.1997 15.9253 35.6863 15.3C35.173 14.6653 34.4543 14.348 33.5303 14.348C32.6063 14.348 31.8877 14.6607 31.3743 15.286C30.861 15.9113 30.6043 16.8167 30.6043 18.002C30.6043 19.1873 30.861 20.0973 31.3743 20.732C31.8877 21.3667 32.6063 21.684 33.5303 21.684ZM43.7942 15.762C44.0648 15.762 44.2982 15.7993 44.4942 15.874L44.4802 17.47C44.1815 17.3487 43.8735 17.288 43.5562 17.288C42.9588 17.288 42.5015 17.4607 42.1842 17.806C41.8762 18.1513 41.7222 18.6087 41.7222 19.178V23H39.9862V17.932C39.9862 17.1853 39.9488 16.518 39.8742 15.93H41.5122L41.6522 17.176C41.8295 16.7187 42.1095 16.3687 42.4922 16.126C42.8748 15.8833 43.3088 15.762 43.7942 15.762ZM48.5379 23.112C47.8005 23.112 47.1612 22.9627 46.6199 22.664C46.0785 22.3653 45.6632 21.9453 45.3739 21.404C45.0845 20.8533 44.9399 20.2093 44.9399 19.472C44.9399 18.7347 45.0892 18.086 45.3879 17.526C45.6959 16.966 46.1252 16.532 46.6759 16.224C47.2359 15.9067 47.8799 15.748 48.6079 15.748C49.1119 15.748 49.5972 15.8273 50.0639 15.986C50.5399 16.1447 50.9179 16.364 51.1979 16.644L50.7079 17.876C50.4092 17.6333 50.0919 17.4513 49.7559 17.33C49.4199 17.1993 49.0885 17.134 48.7619 17.134C48.1272 17.134 47.6325 17.3347 47.2779 17.736C46.9232 18.128 46.7459 18.6973 46.7459 19.444C46.7459 20.1907 46.9185 20.76 47.2639 21.152C47.6185 21.544 48.1179 21.74 48.7619 21.74C49.0885 21.74 49.4199 21.6747 49.7559 21.544C50.0919 21.4133 50.4092 21.2267 50.7079 20.984L51.1979 22.216C50.8992 22.496 50.5119 22.7153 50.0359 22.874C49.5599 23.0327 49.0605 23.112 48.5379 23.112ZM56.4189 15.748C58.1082 15.748 58.9529 16.7187 58.9529 18.66V23H57.2029V18.744C57.2029 18.184 57.0956 17.778 56.8809 17.526C56.6662 17.2647 56.3349 17.134 55.8869 17.134C55.3549 17.134 54.9256 17.3067 54.5989 17.652C54.2722 17.988 54.1089 18.436 54.1089 18.996V23H52.3729V12.696H54.1089V16.952C54.3516 16.5693 54.6736 16.2753 55.0749 16.07C55.4762 15.8553 55.9242 15.748 56.4189 15.748ZM67.5704 15.93V23H65.8484V21.866C65.6338 22.258 65.3258 22.566 64.9244 22.79C64.5231 23.0047 64.0658 23.112 63.5524 23.112C62.9364 23.112 62.3904 22.9627 61.9144 22.664C61.4384 22.3653 61.0698 21.9407 60.8084 21.39C60.5471 20.8393 60.4164 20.2 60.4164 19.472C60.4164 18.744 60.5471 18.1 60.8084 17.54C61.0791 16.9707 61.4524 16.532 61.9284 16.224C62.4044 15.9067 62.9458 15.748 63.5524 15.748C64.0658 15.748 64.5231 15.86 64.9244 16.084C65.3258 16.2987 65.6338 16.602 65.8484 16.994V15.93H67.5704ZM64.0284 21.74C64.6071 21.74 65.0551 21.5393 65.3724 21.138C65.6898 20.7367 65.8484 20.172 65.8484 19.444C65.8484 18.6973 65.6898 18.1233 65.3724 17.722C65.0551 17.3207 64.6024 17.12 64.0144 17.12C63.4358 17.12 62.9831 17.33 62.6564 17.75C62.3391 18.1607 62.1804 18.7347 62.1804 19.472C62.1804 20.2 62.3391 20.76 62.6564 21.152C62.9831 21.544 63.4404 21.74 64.0284 21.74ZM73.2844 15.762C73.5551 15.762 73.7884 15.7993 73.9844 15.874L73.9704 17.47C73.6717 17.3487 73.3637 17.288 73.0464 17.288C72.4491 17.288 71.9917 17.4607 71.6744 17.806C71.3664 18.1513 71.2124 18.6087 71.2124 19.178V23H69.4764V17.932C69.4764 17.1853 69.4391 16.518 69.3644 15.93H71.0024L71.1424 17.176C71.3197 16.7187 71.5997 16.3687 71.9824 16.126C72.3651 15.8833 72.7991 15.762 73.2844 15.762ZM81.5841 12.696V23H79.8621V21.866C79.6475 22.258 79.3395 22.566 78.9381 22.79C78.5368 23.0047 78.0795 23.112 77.5661 23.112C76.9595 23.112 76.4181 22.958 75.9421 22.65C75.4661 22.342 75.0928 21.908 74.8221 21.348C74.5608 20.7787 74.4301 20.13 74.4301 19.402C74.4301 18.674 74.5608 18.0347 74.8221 17.484C75.0835 16.9333 75.4521 16.5087 75.9281 16.21C76.4041 15.902 76.9501 15.748 77.5661 15.748C78.0701 15.748 78.5181 15.8553 78.9101 16.07C79.3115 16.2753 79.6195 16.5693 79.8341 16.952V12.696H81.5841ZM78.0281 21.74C78.6068 21.74 79.0548 21.5393 79.3721 21.138C79.6988 20.7367 79.8621 20.1673 79.8621 19.43C79.8621 18.6927 79.7035 18.1233 79.3861 17.722C79.0688 17.3207 78.6208 17.12 78.0421 17.12C77.4541 17.12 76.9968 17.3207 76.6701 17.722C76.3528 18.114 76.1941 18.674 76.1941 19.402C76.1941 20.1393 76.3528 20.7133 76.6701 21.124C76.9968 21.5347 77.4495 21.74 78.0281 21.74ZM93.5899 17.848C94.1685 18.016 94.6119 18.31 94.9199 18.73C95.2372 19.15 95.3959 19.668 95.3959 20.284C95.3959 21.1333 95.0926 21.8007 94.4859 22.286C93.8886 22.762 93.0532 23 91.9799 23H87.4579V13.032H91.8399C92.8665 13.032 93.6739 13.2653 94.2619 13.732C94.8499 14.1893 95.1439 14.824 95.1439 15.636C95.1439 16.1587 95.0039 16.616 94.7239 17.008C94.4532 17.3907 94.0752 17.6707 93.5899 17.848ZM89.2219 17.232H91.5459C92.7965 17.232 93.4219 16.7653 93.4219 15.832C93.4219 15.3653 93.2679 15.0153 92.9599 14.782C92.6519 14.5487 92.1805 14.432 91.5459 14.432H89.2219V17.232ZM91.7839 21.6C92.4372 21.6 92.9132 21.4833 93.2119 21.25C93.5199 21.0167 93.6739 20.648 93.6739 20.144C93.6739 19.6307 93.5199 19.2527 93.2119 19.01C92.9132 18.7673 92.4372 18.646 91.7839 18.646H89.2219V21.6H91.7839ZM100.806 15.762C101.077 15.762 101.31 15.7993 101.506 15.874L101.492 17.47C101.193 17.3487 100.885 17.288 100.568 17.288C99.9706 17.288 99.5132 17.4607 99.1959 17.806C98.8879 18.1513 98.7339 18.6087 98.7339 19.178V23H96.9979V17.932C96.9979 17.1853 96.9606 16.518 96.8859 15.93H98.5239L98.6639 17.176C98.8412 16.7187 99.1212 16.3687 99.5039 16.126C99.8866 15.8833 100.321 15.762 100.806 15.762ZM109.106 15.93V23H107.384V21.866C107.169 22.258 106.861 22.566 106.46 22.79C106.058 23.0047 105.601 23.112 105.088 23.112C104.472 23.112 103.926 22.9627 103.45 22.664C102.974 22.3653 102.605 21.9407 102.344 21.39C102.082 20.8393 101.952 20.2 101.952 19.472C101.952 18.744 102.082 18.1 102.344 17.54C102.614 16.9707 102.988 16.532 103.464 16.224C103.94 15.9067 104.481 15.748 105.088 15.748C105.601 15.748 106.058 15.86 106.46 16.084C106.861 16.2987 107.169 16.602 107.384 16.994V15.93H109.106ZM105.564 21.74C106.142 21.74 106.59 21.5393 106.908 21.138C107.225 20.7367 107.384 20.172 107.384 19.444C107.384 18.6973 107.225 18.1233 106.908 17.722C106.59 17.3207 106.138 17.12 105.55 17.12C104.971 17.12 104.518 17.33 104.192 17.75C103.874 18.1607 103.716 18.7347 103.716 19.472C103.716 20.2 103.874 20.76 104.192 21.152C104.518 21.544 104.976 21.74 105.564 21.74ZM115.058 15.748C116.747 15.748 117.592 16.7187 117.592 18.66V23H115.842V18.744C115.842 18.184 115.734 17.778 115.52 17.526C115.305 17.2647 114.974 17.134 114.526 17.134C113.994 17.134 113.564 17.3067 113.238 17.652C112.911 17.988 112.748 18.436 112.748 18.996V23H111.012V17.932C111.012 17.1853 110.974 16.518 110.9 15.93H112.538L112.664 17.092C112.906 16.6627 113.233 16.3313 113.644 16.098C114.064 15.8647 114.535 15.748 115.058 15.748ZM122.653 23.112C121.916 23.112 121.276 22.9627 120.735 22.664C120.194 22.3653 119.778 21.9453 119.489 21.404C119.2 20.8533 119.055 20.2093 119.055 19.472C119.055 18.7347 119.204 18.086 119.503 17.526C119.811 16.966 120.24 16.532 120.791 16.224C121.351 15.9067 121.995 15.748 122.723 15.748C123.227 15.748 123.712 15.8273 124.179 15.986C124.655 16.1447 125.033 16.364 125.313 16.644L124.823 17.876C124.524 17.6333 124.207 17.4513 123.871 17.33C123.535 17.1993 123.204 17.134 122.877 17.134C122.242 17.134 121.748 17.3347 121.393 17.736C121.038 18.128 120.861 18.6973 120.861 19.444C120.861 20.1907 121.034 20.76 121.379 21.152C121.734 21.544 122.233 21.74 122.877 21.74C123.204 21.74 123.535 21.6747 123.871 21.544C124.207 21.4133 124.524 21.2267 124.823 20.984L125.313 22.216C125.014 22.496 124.627 22.7153 124.151 22.874C123.675 23.0327 123.176 23.112 122.653 23.112ZM130.534 15.748C132.223 15.748 133.068 16.7187 133.068 18.66V23H131.318V18.744C131.318 18.184 131.211 17.778 130.996 17.526C130.781 17.2647 130.45 17.134 130.002 17.134C129.47 17.134 129.041 17.3067 128.714 17.652C128.387 17.988 128.224 18.436 128.224 18.996V23H126.488V12.696H128.224V16.952C128.467 16.5693 128.789 16.2753 129.19 16.07C129.591 15.8553 130.039 15.748 130.534 15.748Z" fill="white"/>
<defs>
<filter id="filter0_d_7538_14246" x="0" y="0" width="162" height="61.9706" filterUnits="userSpaceOnUse" color-interpolation-filters="sRGB">
<feFlood flood-opacity="0" result="BackgroundImageFix"/>
<feColorMatrix in="SourceAlpha" type="matrix" values="0 0 0 0 0 0 0 0 0 0 0 0 0 0 0 0 0 0 127 0" result="hardAlpha"/>
<feOffset dy="10"/>
<feGaussianBlur stdDeviation="4"/>
<feColorMatrix type="matrix" values="0 0 0 0 0.929412 0 0 0 0 0.109804 0 0 0 0 0.141176 0 0 0 0.1 0"/>
<feBlend mode="normal" in2="BackgroundImageFix" result="effect1_dropShadow_7538_14246"/>
<feBlend mode="normal" in="SourceGraphic" in2="effect1_dropShadow_7538_14246" result="shape"/>
</filter>
</defs>
</svg>
