<svg width="20" height="20" viewBox="0 0 20 20" fill="none" xmlns="http://www.w3.org/2000/svg">
<path d="M0.442119 2.31499C1.07232 1.05459 1.80755 0.42439 2.43775 0.109289C3.06796 -0.100778 3.69816 0.00425578 4.32836 0.319356C5.58876 0.949557 6.84916 2.63009 7.37433 4.20559C7.68943 5.04586 7.68943 5.466 7.58439 5.88613C7.47936 6.20123 7.26929 6.51633 6.74413 6.83143C6.00889 7.46163 6.11393 8.51197 6.42903 9.2472C6.74413 10.0875 7.47936 10.9277 8.21459 11.663C8.94983 12.3982 9.89513 13.0284 10.6304 13.4485C11.4706 13.7636 12.4159 13.8687 13.0461 13.1334C13.3612 12.7133 13.6763 12.3982 13.9914 12.2932C14.3065 12.1881 14.8317 12.1881 15.5669 12.5032C17.1424 13.0284 18.823 14.2888 19.5582 15.6542C19.8733 16.2844 19.9783 16.9146 19.6632 17.5448C19.4532 18.175 18.7179 18.9103 17.4575 19.6455C16.1971 20.2757 14.3065 20.0656 12.2059 19.0153C10.1052 17.965 7.79446 16.1794 5.69379 14.1838C3.69816 12.1881 1.91259 9.77237 0.862253 7.6717C-0.083048 5.466 -0.293115 3.57539 0.442119 2.31499Z" fill="#ED1C24"/>
</svg>
