<svg width="305" height="76" viewBox="0 0 305 76" fill="none" xmlns="http://www.w3.org/2000/svg">
<path d="M37.4289 74.8558C58.0997 74.8558 74.8568 58.0987 74.8568 37.4279C74.8568 16.757 58.0997 0 37.4289 0C16.758 0 0.000976562 16.757 0.000976562 37.4279C0.000976562 58.0987 16.758 74.8558 37.4289 74.8558Z" fill="#ED1C24"/>
<path d="M61.4518 39.3844L53.0083 28.3789C53.0246 31.45 52.3851 34.7859 51.0207 38.0728C50.3404 39.7184 49.5177 41.2417 48.5972 42.6266L51.6805 46.6426C53.3138 48.7688 56.279 49.3431 58.5844 47.9704L59.957 47.1558C62.6819 45.5388 63.3825 41.9015 61.4518 39.3844Z" fill="white"/>
<path d="M55.884 49.331C54.1 49.331 52.3485 48.5246 51.1959 47.0216L47.8478 42.6593L48.0881 42.2968C49.0127 40.9079 49.8069 39.4131 50.4546 37.849C51.7376 34.7494 52.4096 31.4787 52.3933 28.3913L52.3852 26.5747L61.9325 39.018C62.9589 40.3539 63.3662 42.0728 63.0485 43.7265C62.7308 45.3801 61.7166 46.8261 60.2666 47.6855L58.894 48.5001C57.9572 49.0581 56.9145 49.331 55.884 49.331ZM49.3467 42.6023L52.1652 46.2762C53.6071 48.158 56.2343 48.663 58.2749 47.4493L59.6475 46.6346C60.7961 45.9504 61.5985 44.8058 61.851 43.4943C62.1036 42.1828 61.7818 40.8183 60.9672 39.7593L53.5623 30.1061C53.3709 32.8269 52.6988 35.6332 51.5869 38.3093C50.9637 39.8122 50.2102 41.25 49.3467 42.6023Z" fill="black"/>
<path d="M18.9165 21.7681L32.6672 19.9556C30.4841 22.1184 28.5779 24.9288 27.2174 28.2158C26.5372 29.8613 26.0403 31.5191 25.7104 33.1483L20.6924 33.8081C18.0326 34.1584 15.5318 32.464 14.8719 29.8654L14.4768 28.3176C13.6948 25.2465 15.7721 22.1835 18.9165 21.7681Z" fill="white"/>
<path d="M19.9961 34.4678C17.3323 34.4678 14.9496 32.6635 14.2775 30.0159L13.8865 28.4682C13.4711 26.8349 13.7765 25.0957 14.7215 23.7027C15.6665 22.3056 17.1694 21.381 18.8394 21.1611L34.3904 19.1123L33.0993 20.3872C30.9039 22.5581 29.0669 25.3482 27.7839 28.4478C27.1363 30.0119 26.6393 31.633 26.3135 33.2663L26.228 33.6939L20.7741 34.4108C20.5134 34.4515 20.2527 34.4678 19.9961 34.4678ZM31.0586 20.7863L18.9982 22.3748C17.6745 22.55 16.4811 23.2831 15.7316 24.391C14.9822 25.4989 14.7419 26.8756 15.0718 28.1708L15.4628 29.7186C16.0452 32.0158 18.261 33.5147 20.6112 33.2092L25.2015 32.6064C25.5437 31.0383 26.0324 29.4905 26.6516 27.9876C27.7635 25.3075 29.2706 22.8473 31.0586 20.7863Z" fill="black"/>
<path d="M51.4812 21.0878L53.4729 19.817C54.4627 19.1857 54.7518 17.8741 54.1246 16.8844C53.4933 15.8946 52.1817 15.6054 51.192 16.2327L49.0007 17.6297C48.2023 16.8884 47.29 16.2938 46.2717 15.8742C45.2534 15.4506 44.1903 15.2307 43.0988 15.19L42.5367 12.6565C42.2841 11.512 41.1477 10.791 40.0032 11.0436C38.8587 11.2961 38.1377 12.4325 38.3903 13.577L38.9035 15.8824C34.2683 17.5361 29.7798 22.0327 27.2178 28.2198C23.2669 37.7589 25.3931 47.6973 31.9629 50.4221C38.5369 53.143 47.0659 47.6199 51.0168 38.0807C53.5829 31.8896 53.5869 25.5356 51.4812 21.0878ZM42.9032 15.1859C42.7729 15.1818 42.6385 15.1818 42.5082 15.1859C42.6426 15.1818 42.7729 15.1859 42.9032 15.1859ZM51.2653 20.656C51.2449 20.6153 51.2246 20.5787 51.2042 20.5379C51.2246 20.5787 51.2449 20.6194 51.2653 20.656ZM49.4202 18.0493C49.3306 17.9556 49.2328 17.8619 49.1391 17.7682C49.2369 17.8619 49.3306 17.9556 49.4202 18.0493Z" fill="url(#paint0_linear_7538_15316)"/>
<path d="M56.2959 45.5424L52.0191 35.2212C51.7462 36.1702 51.4122 37.1274 51.0212 38.0764C49.6445 41.4001 47.7139 44.2309 45.5022 46.4018L46.716 49.3344C47.5835 51.4321 49.8848 52.5481 52.0721 51.9331L53.3714 51.5665C55.9537 50.8415 57.3223 48.0229 56.2959 45.5424Z" fill="white"/>
<path d="M50.8538 52.7153C48.8417 52.7153 46.9558 51.5137 46.1494 49.5709L44.7767 46.2554L45.07 45.9662C47.2939 43.783 49.1553 40.9726 50.4546 37.8445C50.8293 36.9443 51.1552 36.0034 51.4322 35.0544L51.9169 33.3804L56.8575 45.3104C57.4155 46.6546 57.3707 48.1738 56.7353 49.4813C56.0999 50.7887 54.935 51.7663 53.5339 52.1573L52.2345 52.5239C51.7784 52.6542 51.314 52.7153 50.8538 52.7153ZM46.2227 46.5446L47.2817 49.1025C48.0311 50.915 50.0188 51.8762 51.9046 51.3467L53.2039 50.9802C54.267 50.6788 55.155 49.9375 55.6356 48.9436C56.1162 47.9498 56.1529 46.793 55.7293 45.7748L52.092 36.9891C51.9331 37.4372 51.7661 37.8771 51.5869 38.3088C50.2835 41.4532 48.4344 44.2922 46.2227 46.5446Z" fill="black"/>
<path d="M18.208 29.7675L28.5291 25.4907C28.0526 26.3583 27.6086 27.2666 27.2176 28.2156C25.8409 31.5393 25.2055 34.9077 25.234 38.0073L22.3014 39.2211C20.2038 40.0887 17.7884 39.2537 16.6765 37.2701L16.0166 36.093C14.7051 33.755 15.7315 30.7939 18.208 29.7675Z" fill="white"/>
<path d="M20.5865 40.1743C18.7903 40.1743 17.0674 39.2212 16.1428 37.5716L15.483 36.3945C14.7742 35.1277 14.6398 33.6125 15.1123 32.2399C15.5889 30.8673 16.6316 29.7594 17.9757 29.2014L29.9057 24.2607L29.0626 25.7881C28.5861 26.6557 28.1543 27.5518 27.7796 28.4519C26.4844 31.5841 25.8123 34.8874 25.8408 38.0033L25.8449 38.4147L22.5294 39.7873C21.8981 40.0521 21.2382 40.1743 20.5865 40.1743ZM18.4441 30.3296C17.4217 30.7532 16.6316 31.5923 16.2691 32.6391C15.9066 33.6859 16.0084 34.8345 16.5501 35.7957L17.2099 36.9728C18.1671 38.6835 20.2566 39.4045 22.0651 38.655L24.623 37.596C24.6515 34.4394 25.352 31.1239 26.6554 27.9795C26.8346 27.5477 27.0261 27.116 27.2297 26.6883L18.4441 30.3296Z" fill="black"/>
<g style="mix-blend-mode:multiply" opacity="0.7">
<path d="M22.8163 72.4845C27.1573 74.2739 31.647 75.1765 36.0804 75.2804L43.7787 48.2121L43.7506 48.2001C39.9316 51.3355 35.4861 52.5417 31.6992 50.98C27.9444 49.4343 25.6635 45.5041 25.1655 40.6592L10.3794 64.0768C13.7968 67.5957 17.9773 70.4914 22.8163 72.4845Z" fill="url(#paint1_radial_7538_15316)"/>
</g>
<path d="M30.1545 49.1631C29.1444 52.9755 29.1688 55.6556 29.7024 55.8755C30.2278 56.0955 32.1462 54.2178 34.1298 50.8086C33.417 50.6986 32.7205 50.5113 32.0403 50.2302C31.3601 49.9492 30.7369 49.5908 30.1545 49.1631Z" fill="black"/>
<path d="M29.7676 56.4991C29.6617 56.4991 29.5639 56.4828 29.4702 56.4421C27.8328 55.7619 29.3847 49.697 29.5639 49.0087L29.792 48.1411L30.5129 48.6706C31.0709 49.0779 31.6615 49.416 32.2725 49.6685C32.8835 49.9211 33.5352 50.1003 34.2194 50.2062L35.1033 50.3447L34.6553 51.1185C34.5249 51.3507 31.5108 56.4991 29.7676 56.4991ZM30.5374 50.1532C29.9386 52.703 29.8816 54.4666 29.9997 55.155C30.574 54.7517 31.7797 53.4646 33.1604 51.2407C32.692 51.1267 32.2399 50.976 31.8082 50.7968C31.3764 50.6176 30.9487 50.4017 30.5374 50.1532Z" fill="black"/>
<path d="M17.1572 47.6484L19.4096 50.4548L22.998 50.19L21.0266 53.2L22.3871 56.5278L18.9168 55.5828L16.1675 57.9085L15.9964 54.312L12.9375 52.418L16.3019 51.1431L17.1572 47.6484Z" fill="white"/>
<path d="M38.5 58.7231L39.5957 60.6375L41.7952 60.8208L40.3126 62.4541L40.8176 64.6006L38.8055 63.6964L36.9197 64.8409L37.1559 62.6455L35.486 61.2037L37.6447 60.7556L38.5 58.7231Z" fill="white"/>
<path d="M23.0101 63.8022L24.7086 65.1912L26.8103 64.5761L26.0161 66.6208L27.2502 68.4293L25.063 68.3071L23.7229 70.0381L23.1608 67.9201L21.0999 67.1788L22.945 65.9936L23.0101 63.8022Z" fill="white"/>
<path d="M27.2172 28.2196C26.9362 28.8998 26.6877 29.5759 26.4678 30.2561L50.1039 40.0478C50.4297 39.4124 50.7352 38.7567 51.0163 38.0765C51.3706 37.2211 51.672 36.3658 51.9286 35.5104L28.3862 25.7554C27.9626 26.5455 27.5716 27.3642 27.2172 28.2196Z" fill="black"/>
<path d="M25.6287 33.5596C25.3029 35.3232 25.1807 37.0502 25.2499 38.6957L45.0044 46.8786C46.2141 45.7666 47.3505 44.4591 48.3687 42.9806L25.6287 33.5596Z" fill="black"/>
<path d="M25.8118 42.5815C26.7649 46.2636 28.8747 49.1392 31.9662 50.4222C35.0577 51.7012 38.5809 51.1595 41.8597 49.2288L25.8118 42.5815Z" fill="black"/>
<path d="M39.8238 23.3809C40.6111 23.3809 41.2494 22.7427 41.2494 21.9554C41.2494 21.168 40.6111 20.5298 39.8238 20.5298C39.0364 20.5298 38.3982 21.168 38.3982 21.9554C38.3982 22.7427 39.0364 23.3809 39.8238 23.3809Z" fill="black"/>
<path d="M46.5323 26.1627C47.3196 26.1627 47.9578 25.5244 47.9578 24.7371C47.9578 23.9498 47.3196 23.3115 46.5323 23.3115C45.7449 23.3115 45.1067 23.9498 45.1067 24.7371C45.1067 25.5244 45.7449 26.1627 46.5323 26.1627Z" fill="black"/>
<path d="M35.5263 51.7297C34.2107 51.7297 32.9359 51.4813 31.7302 50.9844C28.3618 49.5873 25.9872 46.3981 25.0463 42.0032C24.1258 37.6898 24.696 32.7125 26.6511 27.9837C29.1153 22.0369 33.4043 17.4099 38.1942 15.4956L37.7991 13.7075C37.6403 12.9947 37.7706 12.2615 38.1616 11.6465C38.5526 11.0315 39.1636 10.6038 39.8764 10.445C40.5892 10.2861 41.3223 10.4164 41.9374 10.8075C42.5524 11.1985 42.9801 11.8094 43.1389 12.5222L43.6033 14.6076C44.6134 14.6932 45.5909 14.9294 46.5115 15.3123C47.432 15.6952 48.2873 16.2165 49.0653 16.8723L50.8656 15.7237C51.4806 15.3327 52.2138 15.2023 52.9266 15.3612C53.6394 15.52 54.2503 15.9477 54.6413 16.5627C55.4519 17.8335 55.0771 19.5279 53.8063 20.3385L52.2586 21.3242C54.291 26.0652 54.0507 32.3663 51.5865 38.3171C49.6274 43.0459 46.5115 46.9683 42.809 49.3673C40.3815 50.9314 37.8887 51.7297 35.5263 51.7297ZM40.4711 11.6017C40.3611 11.6017 40.2511 11.6139 40.1411 11.6384C39.7461 11.7239 39.408 11.9601 39.1921 12.3023C38.9762 12.6444 38.9029 13.0477 38.9925 13.4427L39.6198 16.2735L39.1107 16.4527C34.4388 18.1227 30.2028 22.6072 27.7834 28.448C25.9179 32.9487 25.3721 37.6694 26.2438 41.7425C27.0991 45.7341 29.2131 48.6138 32.1986 49.852C35.1842 51.0903 38.7196 50.5485 42.1451 48.3287C45.6398 46.0641 48.5928 42.3372 50.4583 37.8364C52.8777 31.9916 53.0569 25.829 50.9307 21.3445L50.7352 20.9291L50.7271 20.9331L50.6701 20.8232L51.2159 20.5299L53.1506 19.2998C53.8552 18.8518 54.0629 17.915 53.6149 17.2103C53.399 16.8682 53.061 16.632 52.6659 16.5464C52.2708 16.4568 51.8676 16.5301 51.5254 16.746L49.3097 18.1594L48.9879 18.4689C48.9024 18.3793 48.8127 18.2938 48.7231 18.2042L48.7272 18.2001L48.5928 18.0738C47.8311 17.3692 46.9758 16.8193 46.0471 16.4324C45.1185 16.0454 44.1206 15.8336 43.086 15.7929H42.8946V15.797C42.7724 15.7929 42.6461 15.7929 42.5239 15.797L42.5076 15.3204L41.9455 12.787C41.86 12.3919 41.6238 12.0538 41.2816 11.8379C41.0332 11.6832 40.7521 11.6017 40.4711 11.6017Z" fill="black"/>
<path d="M88.001 22.1289H93.4789V42.6704H104.644V47.1287H88.001V22.1289Z" fill="#ED1C24"/>
<path d="M123.011 38.669H111.283C111.376 40.332 111.811 41.5415 112.583 42.3038C113.355 43.0662 114.503 43.4457 116.024 43.4457C116.938 43.4457 117.851 43.2946 118.762 42.989C119.675 42.6866 120.518 42.2395 121.29 41.6541L122.696 45.2342C121.853 45.9129 120.804 46.4469 119.553 46.8329C118.302 47.2189 117.041 47.4119 115.78 47.4119C112.782 47.4119 110.431 46.5852 108.723 44.935C107.015 43.2849 106.159 41.0332 106.159 38.1769C106.159 36.3755 106.529 34.764 107.265 33.3487C108.002 31.9333 109.038 30.8333 110.373 30.0484C111.708 29.2635 113.216 28.8711 114.902 28.8711C117.408 28.8711 119.386 29.6849 120.837 31.3125C122.287 32.9402 123.014 35.1339 123.014 37.897V38.669H123.011ZM112.599 33.4709C111.978 34.0563 111.576 34.912 111.386 36.0346H118.443C118.163 33.7411 117.028 32.5928 115.037 32.5928C114.033 32.596 113.219 32.8887 112.599 33.4709Z" fill="#ED1C24"/>
<path d="M143.237 36.353V47.132H137.936V36.5975C137.936 35.3559 137.708 34.4488 137.251 33.8762C136.794 33.3036 136.074 33.0174 135.093 33.0174C133.922 33.0174 132.986 33.3905 132.284 34.14C131.583 34.8894 131.233 35.8963 131.233 37.1604V47.132H125.925V34.4198C125.925 32.522 125.832 30.8268 125.645 29.3279H130.631L130.982 32.136C131.612 31.0841 132.439 30.2736 133.459 29.7139C134.478 29.1509 135.63 28.8711 136.916 28.8711C141.13 28.8711 143.237 31.364 143.237 36.353Z" fill="#ED1C24"/>
<path d="M164.866 21.2861V47.1319H159.636V44.4975C159.099 45.411 158.337 46.1251 157.352 46.6398C156.368 47.1544 155.258 47.4118 154.017 47.4118C152.495 47.4118 151.138 47.0193 149.944 46.2345C148.751 45.4496 147.821 44.3495 147.152 42.9342C146.486 41.5189 146.152 39.8977 146.152 38.0706C146.152 36.2436 146.486 34.6352 147.152 33.2424C147.818 31.8496 148.744 30.772 149.925 30.0129C151.105 29.2538 152.473 28.871 154.017 28.871C155.21 28.871 156.3 29.1219 157.281 29.6269C158.266 30.1319 159.025 30.8267 159.565 31.7177V21.2861H164.866ZM158.581 42.0239C159.282 41.1232 159.633 39.8301 159.633 38.1446C159.633 36.4816 159.276 35.2014 158.562 34.3007C157.848 33.4 156.847 32.9497 155.561 32.9497C154.248 32.9497 153.232 33.3936 152.505 34.2846C151.778 35.1756 151.418 36.4398 151.418 38.077C151.418 39.7626 151.781 41.0685 152.505 41.9917C153.228 42.9181 154.248 43.3781 155.561 43.3781C156.873 43.3749 157.88 42.9245 158.581 42.0239Z" fill="#ED1C24"/>
<path d="M168.729 29.3276H174.03V47.1318H168.729V29.3276Z" fill="#ED1C24"/>
<path d="M171.38 26.5906C172.844 26.5906 174.03 25.4039 174.03 23.9401C174.03 22.4762 172.844 21.2896 171.38 21.2896C169.916 21.2896 168.729 22.4762 168.729 23.9401C168.729 25.4039 169.916 26.5906 171.38 26.5906Z" fill="#ED1C24"/>
<path d="M195.241 36.353V47.132H189.94V36.5975C189.94 35.3559 189.711 34.4488 189.255 33.8762C188.798 33.3036 188.077 33.0174 187.096 33.0174C185.925 33.0174 184.989 33.3905 184.288 34.14C183.587 34.8894 183.236 35.8963 183.236 37.1604V47.132H177.935V34.4198C177.935 32.522 177.842 30.8268 177.655 29.3279H182.641L182.992 32.136C183.622 31.0841 184.449 30.2736 185.469 29.7139C186.488 29.1509 187.64 28.8711 188.926 28.8711C193.134 28.8711 195.241 31.364 195.241 36.353Z" fill="#ED1C24"/>
<path d="M217.046 29.3277V46.3244C217.046 49.1551 216.226 51.3102 214.589 52.7867C212.952 54.2599 210.562 54.9997 207.425 54.9997C204.592 54.9997 202.134 54.4497 200.053 53.3496L200.86 49.4156C203.015 50.4932 205.145 51.0304 207.252 51.0304C208.773 51.0304 209.909 50.6733 210.658 49.9593C211.408 49.2452 211.781 48.1611 211.781 46.7104V43.6192C211.218 44.4845 210.433 45.205 209.429 45.7776C208.423 46.3502 207.31 46.6365 206.094 46.6365C204.55 46.6365 203.179 46.2665 201.986 45.5299C200.793 44.7933 199.857 43.7511 199.178 42.4033C198.499 41.0588 198.158 39.5051 198.158 37.7521C198.158 35.999 198.496 34.4453 199.178 33.1008C199.857 31.7562 200.793 30.714 201.986 29.9742C203.179 29.2344 204.55 28.8677 206.094 28.8677C207.335 28.8677 208.458 29.1379 209.465 29.6751C210.472 30.2122 211.244 30.9392 211.784 31.8527V29.3244H217.046V29.3277ZM210.674 41.3193C211.411 40.4637 211.781 39.2768 211.781 37.7553C211.781 36.2563 211.417 35.0822 210.693 34.2266C209.967 33.371 208.95 32.9464 207.638 32.9464C206.325 32.9464 205.296 33.3742 204.546 34.2266C203.797 35.0822 203.424 36.2563 203.424 37.7553C203.424 39.2542 203.797 40.4348 204.546 41.3032C205.296 42.1685 206.325 42.6028 207.638 42.6028C208.924 42.6028 209.938 42.175 210.674 41.3193Z" fill="#ED1C24"/>
<path d="M250.088 36.4205C250.882 37.4723 251.281 38.7622 251.281 40.2837C251.281 42.3906 250.496 44.06 248.93 45.2888C247.36 46.5176 245.231 47.1319 242.538 47.1319H230.669V22.1289H242.188C244.787 22.1289 246.839 22.7079 248.351 23.8659C249.859 25.0239 250.615 26.6097 250.615 28.6233C250.615 29.9357 250.268 31.0808 249.58 32.0651C248.888 33.0494 247.936 33.7635 246.717 34.2074C248.171 34.632 249.293 35.3686 250.088 36.4205ZM236.009 32.3128H241.277C242.683 32.3128 243.729 32.0716 244.42 31.5923C245.112 31.113 245.456 30.37 245.456 29.3632C245.456 28.3338 245.112 27.5715 244.42 27.0793C243.729 26.5872 242.683 26.3427 241.277 26.3427H236.009V32.3128ZM245.121 42.1622C245.787 41.6604 246.122 40.8562 246.122 39.7562C246.122 38.6335 245.787 37.8133 245.121 37.2986C244.456 36.784 243.384 36.5266 241.908 36.5266H236.009V42.9181H241.908C243.381 42.9181 244.452 42.6672 245.121 42.1622Z" fill="#ED1C24"/>
<path d="M270.314 38.669H258.587C258.68 40.332 259.114 41.5415 259.886 42.3038C260.658 43.0662 261.806 43.4457 263.328 43.4457C264.241 43.4457 265.155 43.2946 266.068 42.989C266.982 42.6866 267.825 42.2395 268.597 41.6541L270.002 45.2342C269.16 45.9129 268.111 46.4469 266.86 46.8329C265.608 47.2189 264.348 47.4119 263.083 47.4119C260.085 47.4119 257.734 46.5852 256.026 44.935C254.318 43.2849 253.462 41.0332 253.462 38.1769C253.462 36.3755 253.832 34.764 254.569 33.3487C255.306 31.9333 256.341 30.8333 257.676 30.0484C259.011 29.2635 260.52 28.8711 262.205 28.8711C264.711 28.8711 266.689 29.6849 268.14 31.3125C269.591 32.9402 270.318 35.1339 270.318 37.897V38.669H270.314ZM259.905 33.4709C259.285 34.0563 258.882 34.912 258.693 36.0346H265.75C265.47 33.7411 264.335 32.5928 262.344 32.5928C261.337 32.596 260.523 32.8887 259.905 33.4709Z" fill="#ED1C24"/>
<path d="M289.206 38.669H277.478C277.571 40.332 278.005 41.5415 278.777 42.3038C279.549 43.0662 280.698 43.4457 282.219 43.4457C283.133 43.4457 284.046 43.2946 284.96 42.989C285.873 42.6866 286.716 42.2395 287.488 41.6541L288.894 45.2342C288.051 45.9129 287.002 46.4469 285.751 46.8329C284.5 47.2189 283.239 47.4119 281.975 47.4119C278.977 47.4119 276.625 46.5852 274.917 44.935C273.209 43.2849 272.354 41.0332 272.354 38.1769C272.354 36.3755 272.724 34.764 273.46 33.3487C274.197 31.9333 275.233 30.8333 276.568 30.0484C277.902 29.2635 279.411 28.8711 281.097 28.8711C283.602 28.8711 285.581 29.6849 287.031 31.3125C288.482 32.9402 289.209 35.1339 289.209 37.897V38.669H289.206ZM278.797 33.4709C278.176 34.0563 277.774 34.912 277.584 36.0346H284.641C284.362 33.7411 283.226 32.5928 281.235 32.5928C280.228 32.596 279.414 32.8887 278.797 33.4709Z" fill="#ED1C24"/>
<path d="M298.82 28.0154V23.3384H300.837C301.242 23.3384 301.551 23.3802 301.764 23.4638C301.976 23.5475 302.143 23.6954 302.269 23.9077C302.394 24.12 302.458 24.3548 302.458 24.6122C302.458 24.9435 302.355 25.2233 302.146 25.4517C301.937 25.6801 301.616 25.8248 301.178 25.886C301.339 25.9664 301.458 26.0436 301.542 26.1176C301.719 26.2848 301.883 26.4907 302.04 26.7384L302.831 28.0122H302.076L301.474 27.0375C301.297 26.7577 301.152 26.5422 301.04 26.3942C300.927 26.2462 300.824 26.1401 300.734 26.0822C300.644 26.0211 300.554 25.9825 300.461 25.9567C300.393 25.9406 300.281 25.9342 300.126 25.9342H299.428V28.0122H298.82V28.0154ZM299.422 25.4035H300.715C300.992 25.4035 301.204 25.3745 301.361 25.3166C301.516 25.2587 301.635 25.1654 301.715 25.0368C301.796 24.9081 301.838 24.7698 301.838 24.6186C301.838 24.3967 301.76 24.2165 301.603 24.0718C301.445 23.9302 301.201 23.8595 300.863 23.8595H299.422V25.4035Z" fill="#ED1C24"/>
<path d="M300.425 30.087C297.919 30.087 295.883 28.0477 295.883 25.5451C295.883 23.0426 297.919 21 300.425 21C302.931 21 304.967 23.0394 304.967 25.5419C304.967 28.0445 302.931 30.087 300.425 30.087ZM300.425 21.6433C298.276 21.6433 296.527 23.3932 296.527 25.5419C296.527 27.6906 298.276 29.4405 300.425 29.4405C302.574 29.4405 304.324 27.6906 304.324 25.5419C304.324 23.3932 302.574 21.6433 300.425 21.6433Z" fill="#ED1C24"/>
<defs>
<linearGradient id="paint0_linear_7538_15316" x1="33.7646" y1="15.824" x2="47.7543" y2="55.2949" gradientUnits="userSpaceOnUse">
<stop stop-color="#FFE174"/>
<stop offset="0.125" stop-color="#FFE174"/>
<stop offset="0.390625" stop-color="white"/>
<stop offset="0.635417" stop-color="#FFE174"/>
<stop offset="1" stop-color="#FFE174"/>
</linearGradient>
<radialGradient id="paint1_radial_7538_15316" cx="0" cy="0" r="1" gradientUnits="userSpaceOnUse" gradientTransform="translate(30.4583 52.1894) rotate(112.099) scale(22.4163 21.5923)">
<stop offset="0.161458" stop-color="#BB1414"/>
<stop offset="1" stop-color="#BB1414" stop-opacity="0"/>
</radialGradient>
</defs>
</svg>
