<svg width="11" height="14" viewBox="0 0 11 14" fill="none" xmlns="http://www.w3.org/2000/svg">
<path d="M0.000976562 7.02996V11.0826C0.000976562 12.6939 1.3199 14 2.94699 14H7.94385C9.57094 14 10.8899 12.6939 10.8899 11.0826V7.02996C10.8899 6.22524 10.2295 5.57129 9.41686 5.57129H1.47398C0.659519 5.57129 0.000976562 6.22524 0.000976562 7.02996Z" fill="#ED1C24"/>
<path d="M5.44545 0C3.36342 0 1.66846 1.67847 1.66846 3.74024V5.00817H3.58539V3.74024C3.58539 2.7248 4.42003 1.90009 5.44361 1.90009C6.46903 1.90009 7.30368 2.72661 7.30368 3.74024V5.00817H9.2206V3.74024C9.2206 1.67847 7.52747 0 5.44545 0Z" fill="#ED1C24"/>
</svg>
